<svg width="100" height="100" viewBox="0 0 100 100" fill="none" xmlns="http://www.w3.org/2000/svg">
<path d="M49.9987 37.5002V54.1669M49.9987 70.8336H50.0403M44.2291 16.2157L9.95879 75.41C8.05793 78.6933 7.10751 80.3349 7.24798 81.6823C7.3705 82.8575 7.98621 83.9254 8.94187 84.6202C10.0375 85.4169 11.9345 85.4169 15.7283 85.4169H84.269C88.0628 85.4169 89.9598 85.4169 91.0554 84.6202C92.0111 83.9254 92.6268 82.8575 92.7493 81.6823C92.8898 80.3349 91.9394 78.6933 90.0385 75.41L55.7682 16.2157C53.8741 12.9442 52.9271 11.3085 51.6916 10.7591C50.6138 10.2799 49.3835 10.2799 48.3057 10.7591C47.0702 11.3085 46.1232 12.9442 44.2291 16.2157Z" stroke="white" stroke-width="8" stroke-linecap="round" stroke-linejoin="round"/>
</svg>
