<svg width="40" height="41" viewBox="0 0 40 41" fill="none" xmlns="http://www.w3.org/2000/svg">
<path fill-rule="evenodd" clip-rule="evenodd" d="M12.5 17.5312C12.5 13.7343 15.578 10.6562 19.375 10.6562C23.172 10.6562 26.25 13.7343 26.25 17.5312C26.25 21.3282 23.172 24.4062 19.375 24.4062C15.578 24.4062 12.5 21.3282 12.5 17.5312ZM19.375 6.90625C13.507 6.90625 8.75 11.6632 8.75 17.5312C8.75 23.3993 13.507 28.1562 19.375 28.1562C21.6318 28.1562 23.7242 27.4526 25.4449 26.2528L31.7992 32.6071C32.5314 33.3393 33.7186 33.3393 34.4508 32.6071C35.1831 31.8748 35.1831 30.6877 34.4508 29.9554L28.0966 23.6012C29.2964 21.8805 30 19.788 30 17.5312C30 11.6632 25.243 6.90625 19.375 6.90625Z" fill="#2626BF"/>
</svg>
