<svg width="36" height="32" viewBox="0 0 36 32" fill="none" xmlns="http://www.w3.org/2000/svg">
<path fill-rule="evenodd" clip-rule="evenodd" d="M17.9889 2.92791C14.3195 -0.33229 8.89283 -0.999443 4.67864 2.66126C0.120253 6.62095 -0.542039 13.2897 3.06262 18.0054C4.43091 19.7955 7.10151 22.4847 9.66803 24.9476C12.2646 27.4393 14.8552 29.7938 16.1327 30.944L16.157 30.9659C16.2771 31.0742 16.4267 31.2089 16.57 31.3187C16.7417 31.4501 16.988 31.6132 17.317 31.713C17.7544 31.8457 18.2246 31.8457 18.662 31.713C18.991 31.6132 19.2373 31.4501 19.409 31.3187C19.5523 31.2089 19.7019 31.0742 19.822 30.9659L19.8463 30.944C21.1238 29.7938 23.7144 27.4393 26.3109 24.9476C28.8775 22.4847 31.5481 19.7955 32.9164 18.0054C36.5072 13.3078 35.9472 6.58763 31.284 2.64727C27.0229 -0.953375 21.6541 -0.33353 17.9889 2.92791ZM16.7978 6.2263C14.1239 3.04824 9.87371 2.34255 6.71602 5.08551C3.41764 7.95068 2.97381 12.6928 5.53911 16.0488C6.73578 17.6144 9.22888 20.1415 11.8209 22.6287C14.2406 24.9508 16.6611 27.1577 17.9895 28.3563C19.3179 27.1577 21.7383 24.9508 24.1581 22.6287C26.7501 20.1415 29.2432 17.6144 30.4399 16.0488C33.019 12.6747 32.6079 7.91221 29.2793 5.09949C26.0379 2.36055 21.8432 3.06229 19.1812 6.2263C18.8833 6.58042 18.4478 6.78429 17.9895 6.78429C17.5311 6.78429 17.0957 6.58042 16.7978 6.2263Z" fill="#8D8D8D"/>
</svg>
