<svg width="21" height="21" viewBox="0 0 21 21" fill="none" xmlns="http://www.w3.org/2000/svg">
<g clip-path="url(#clip0_446_6097)">
<path fill-rule="evenodd" clip-rule="evenodd" d="M2.90097 2.61086C5.34446 0.488295 8.49097 0.875127 10.6186 2.76547C12.7438 0.874407 15.8567 0.515006 18.3274 2.60275C21.0312 4.88747 21.3559 8.78398 19.2739 11.5078C18.4805 12.5457 16.932 14.105 15.4439 15.533C13.9384 16.9778 12.4363 18.343 11.6955 19.0099L11.6814 19.0226L11.6814 19.0226C11.6118 19.0854 11.5251 19.1635 11.442 19.2271C11.3425 19.3033 11.1996 19.3979 11.0088 19.4558C10.7552 19.5327 10.4826 19.5327 10.229 19.4558C10.0383 19.3979 9.8954 19.3033 9.79589 19.2271C9.71277 19.1635 9.62606 19.0854 9.55642 19.0226L9.54232 19.0099C8.80157 18.343 7.29949 16.9778 5.79394 15.533C4.30581 14.105 2.75733 12.5457 1.96396 11.5078C-0.126109 8.77348 0.257904 4.90678 2.90097 2.61086Z" fill="#5041FF"/>
</g>
<defs>
<clipPath id="clip0_446_6097">
<rect width="20.004" height="20.004" fill="white" transform="translate(0.623047 0.342285)"/>
</clipPath>
</defs>
</svg>
