<svg width="32" height="32" viewBox="0 0 32 32" fill="none" xmlns="http://www.w3.org/2000/svg">
<g id="Frame 23">
<path id="Union" fill-rule="evenodd" clip-rule="evenodd" d="M10 13.5C10 10.4624 12.4624 8 15.5 8C18.5376 8 21 10.4624 21 13.5C21 16.5376 18.5376 19 15.5 19C12.4624 19 10 16.5376 10 13.5ZM15.5 5C10.8056 5 7 8.80558 7 13.5C7 18.1944 10.8056 22 15.5 22C17.3054 22 18.9794 21.4371 20.356 20.4773L25.4393 25.5607C26.0251 26.1464 26.9749 26.1464 27.5607 25.5607C28.1464 24.9749 28.1464 24.0251 27.5607 23.4393L22.4773 18.356C23.4371 16.9794 24 15.3054 24 13.5C24 8.80558 20.1944 5 15.5 5Z" fill="#707070"/>
</g>
</svg>
