<svg width="17" height="14" viewBox="0 0 17 14" fill="none" xmlns="http://www.w3.org/2000/svg">
<path d="M4.6 13.032C2.232 13.032 0.984 11.208 0.984 8.04C0.984 4.52 2.744 1.832 6.392 0.039999L7.608 2.536C5.336 3.592 4.248 5.032 4.248 7.144C4.376 7.112 4.472 7.112 4.6 7.112C6.2 7.112 7.512 8.2 7.512 9.928C7.512 11.816 6.296 13.032 4.6 13.032ZM13.56 13.032C11.192 13.032 9.944 11.208 9.944 8.04C9.944 4.52 11.704 1.832 15.352 0.039999L16.568 2.536C14.296 3.592 13.208 5.032 13.208 7.144C13.336 7.112 13.432 7.112 13.56 7.112C15.16 7.112 16.472 8.2 16.472 9.928C16.472 11.816 15.256 13.032 13.56 13.032Z" fill="#333333"/>
</svg>
