<svg width="92" height="15" viewBox="0 0 92 15" fill="none" xmlns="http://www.w3.org/2000/svg">
<g clip-path="url(#clip0_26_14470)">
<path d="M11.2992 6.92919C12.0482 6.30148 12.4363 5.39825 12.4363 4.25831C12.4363 2.81506 11.8392 0.395752 7.82815 0.395752H0V14.5963H8.28287C11.524 14.5963 13.0003 12.3409 13.0003 10.2426C13.0003 8.72367 12.4061 7.58373 11.2997 6.92871L11.2992 6.92919ZM3.14094 11.7103V8.64844H7.91871C9.20719 8.64844 9.85885 9.14246 9.85885 10.1156C9.85885 10.8009 9.64035 11.7103 7.75483 11.7103H3.14046H3.14094ZM9.29535 4.54917C9.29535 5.55254 8.47981 5.76194 7.79173 5.76194H3.14094V3.28177H7.68248C9.17125 3.28177 9.29535 3.93679 9.29535 4.54917Z" fill="#707070"/>
<path d="M19.7221 3.52429C16.6694 3.52429 13.5859 5.28571 13.5859 9.22398C13.5859 13.1623 16.6694 14.9237 19.7221 14.9237C22.7749 14.9237 25.8584 13.1623 25.8584 9.22398C25.8584 5.28571 22.7783 3.52429 19.7221 3.52429ZM19.7221 12.1833C16.9449 12.1833 16.7269 9.91877 16.7269 9.22446C16.7269 8.53015 16.9454 6.2656 19.7221 6.2656C22.4989 6.2656 22.7174 8.53015 22.7174 9.22446C22.7174 9.91877 22.5023 12.1833 19.7221 12.1833Z" fill="#707070"/>
<path d="M32.5971 3.52429C29.5444 3.52429 26.4609 5.28571 26.4609 9.22398C26.4609 13.1623 29.5444 14.9237 32.5971 14.9237C35.6499 14.9237 38.7334 13.1623 38.7334 9.22398C38.7334 5.28571 35.6533 3.52429 32.5971 3.52429ZM32.5971 12.1833C29.8199 12.1833 29.6019 9.91877 29.6019 9.22446C29.6019 8.53015 29.8204 6.2656 32.5971 6.2656C35.3739 6.2656 35.5924 8.53015 35.5924 9.22446C35.5924 9.91877 35.3773 12.1833 32.5971 12.1833Z" fill="#707070"/>
<path d="M45.7311 8.13285L50.9703 14.5963H46.9319L43.3243 10.0759L42.354 10.8459V14.5963H39.3223V0.286499H42.354V7.22914L46.3651 3.85198H51.0791L45.7311 8.13285Z" fill="#707070"/>
<path d="M54.7211 3.85205H51.6895V14.5964H54.7211V3.85205Z" fill="#707070"/>
<path d="M54.7211 0.142822H51.6895V2.92534H54.7211V0.142822Z" fill="#707070"/>
<path d="M60.4225 6.48356V11.7525C60.4225 11.9552 60.4225 12.1837 61.2893 12.1837C61.6142 12.1837 61.9693 12.1463 62.4408 12.0644L63.1509 11.9408V14.6993L62.6492 14.787C62.0067 14.9006 61.3282 14.9236 60.5073 14.9236C58.4977 14.9236 57.3908 13.9073 57.3908 12.0615V6.48356H55.4258V3.85293H57.3908V0.0617676H60.4225V3.85293H63.1509V6.48356H60.4225Z" fill="#707070"/>
<path d="M89.2721 6.48356V11.7525C89.2721 11.9552 89.2721 12.1837 90.139 12.1837C90.4638 12.1837 90.8189 12.1463 91.2904 12.0644L92.0005 11.9408V14.6993L91.4988 14.787C90.8563 14.9006 90.1778 14.9236 89.3569 14.9236C87.3473 14.9236 86.2405 13.9073 86.2405 12.0615V6.48356H84.2754V3.85293H86.2405V0.0617676H89.2721V3.85293H92.0005V6.48356H89.2721Z" fill="#707070"/>
<path d="M67.6196 0H64.5879V14.7396H67.6196V0Z" fill="#707070"/>
<path d="M71.9443 0.143799H68.9141V2.92536H71.9443V0.143799Z" fill="#707070"/>
<path d="M71.9443 3.85303H68.9141V14.5964H71.9443V3.85303Z" fill="#707070"/>
<path d="M72.9824 11.0324C73.1104 12.8077 74.1655 14.9242 78.4627 14.9242C81.8873 14.9242 83.8523 13.5169 83.8523 11.0611C83.8523 8.45781 80.9529 8.0625 79.9979 7.93312L77.419 7.58812C76.3581 7.43862 76.3581 7.23737 76.3581 7.00594C76.3581 6.19806 77.9437 6.15637 78.2614 6.15637C79.6083 6.15637 80.4708 6.62069 80.5125 7.36675L83.5399 7.2805C83.4163 5.8775 82.5682 3.52527 78.2796 3.52527C75.2249 3.52527 73.3255 4.93546 73.3255 7.20575C73.3255 8.83012 74.5747 10.0865 76.4348 10.3352L79.4334 10.7348C80.7099 10.9102 80.7099 11.1747 80.7099 11.4076C80.7099 11.961 79.8489 12.2916 78.4071 12.2916C76.9653 12.2916 76.0122 11.8057 76.0122 10.9892" fill="#707070"/>
</g>
<defs>
<clipPath id="clip0_26_14470">
<rect width="92" height="14.9236" fill="white"/>
</clipPath>
</defs>
</svg>
