<svg width="300" height="45" viewBox="0 0 300 45" fill="none" xmlns="http://www.w3.org/2000/svg">
<rect width="300" height="45" rx="6" fill="#03C75A"/>
<path d="M128.795 24.405C127.835 24.6 126.005 24.795 124.4 24.81L123.08 24.825V16.11H124.61V23.52C125.915 23.52 127.715 23.355 128.57 23.13L128.795 24.405ZM133.7 28.185H132.23V14.82H133.7V28.185ZM131.015 27.54H129.56V20.37H126.83V19.095H129.56V15.09H131.015V27.54ZM146.424 28.185H144.894V14.82H146.424V28.185ZM135.819 20.535C135.819 17.715 137.094 15.855 139.239 15.855C141.384 15.855 142.629 17.715 142.629 20.55C142.629 23.355 141.384 25.215 139.239 25.215C137.094 25.215 135.819 23.355 135.819 20.535ZM141.174 20.535C141.174 18.39 140.379 17.115 139.239 17.115C138.114 17.115 137.334 18.39 137.334 20.535C137.334 22.68 138.114 23.97 139.239 23.97C140.379 23.97 141.174 22.68 141.174 20.535ZM159.402 28.185H157.872V20.895H155.637V19.605H157.872V14.82H159.402V28.185ZM155.052 24.855H148.797V15.87H150.342V19.2H153.507V15.87H155.052V24.855ZM153.507 23.61V20.4H150.342V23.61H153.507ZM176.231 23.025H172.106V25.26H177.401V26.49H165.326V25.26H170.576V23.025H166.871V18.705H174.311V16.98H166.826V15.75H175.841V19.95H168.416V21.78H176.231V23.025ZM190.379 26.235H178.304V24.99H190.379V26.235ZM188.804 16.26C188.804 19.8 188.579 22.305 188.219 24.06L186.704 23.865C187.034 22.53 187.259 19.635 187.259 17.475H179.699V16.26H188.804ZM202.278 24.51H200.748V14.82H202.278V24.51ZM202.593 27.795H193.443V23.595H194.973V26.565H202.593V27.795ZM198.528 19.08C198.528 20.985 197.148 22.35 195.108 22.35C193.068 22.35 191.658 20.985 191.658 19.095C191.658 17.19 193.053 15.81 195.108 15.81C197.148 15.81 198.528 17.175 198.528 19.08ZM196.998 19.08C196.998 17.91 196.278 17.085 195.108 17.085C193.968 17.085 193.203 17.94 193.203 19.08C193.203 20.175 193.968 21.045 195.108 21.045C196.278 21.045 196.998 20.175 196.998 19.08Z" fill="white"/>
<g clip-path="url(#clip0_304_5171)">
<path d="M107.849 22.5627L101.917 14H97V30H102.151V21.436L108.083 30H113V14H107.849V22.5627Z" fill="white"/>
</g>
<defs>
<clipPath id="clip0_304_5171">
<rect width="16" height="16" fill="white" transform="translate(97 14)"/>
</clipPath>
</defs>
</svg>
