<svg width="1344" height="512" viewBox="0 0 1344 512" fill="none" xmlns="http://www.w3.org/2000/svg">
<rect width="1344" height="512" rx="30" fill="#F8F8F8"/>
<path d="M390.92 435C390.94 436.98 392.2 438.9 394.4 439.68L393.56 441.12C391.9 440.48 390.72 439.28 390.1 437.8C389.5 439.4 388.32 440.72 386.64 441.4L385.72 440.04C387.96 439.14 389.18 437.12 389.2 435V434.84H386.12V433.36H389.2V431.36H390.92V433.36H393.92V434.84H390.92V435ZM388.68 444.28V442.76H400.56V448.64H398.72V444.28H388.68ZM395.04 441.8V431.48H396.8V435.76H398.8V431.16H400.56V441.88H398.8V437.28H396.8V441.8H395.04ZM416.048 432.28C416.048 436.7 413.008 439.86 407.928 441.28L407.168 439.84C411.228 438.72 413.708 436.52 414.088 433.76H408.088V432.28H416.048ZM410.168 448.44V441.8H421.608V448.44H410.168ZM411.968 446.96H419.768V443.28H411.968V446.96ZM416.128 437.08V435.56H419.768V431.16H421.608V441.08H419.768V437.08H416.128ZM429.253 434.44C429.253 436.42 430.453 438.4 432.733 439.28L431.733 440.72C430.133 440.06 428.993 438.86 428.353 437.4C427.713 439.02 426.513 440.44 424.813 441.16L423.813 439.72C426.193 438.7 427.453 436.44 427.453 434.44V432.2H429.253V434.44ZM426.933 444.16V442.64H438.813V448.64H436.973V444.16H426.933ZM433.293 441.64V431.48H435.013V435.64H437.053V431.16H438.813V441.76H437.053V437.16H435.013V441.64H433.293ZM460.341 433.08V434.6H446.061V433.08H452.301V431.08H454.141V433.08H460.341ZM445.261 444V442.48H461.301V444H454.141V448.68H452.301V444H445.261ZM447.421 438.44C447.401 436.56 449.581 435.5 453.221 435.52C456.861 435.5 459.041 436.56 459.061 438.44C459.041 440.34 456.861 441.38 453.221 441.4C449.581 441.38 447.401 440.34 447.421 438.44ZM449.341 438.44C449.321 439.44 450.721 440 453.221 440C455.741 440 457.121 439.44 457.141 438.44C457.121 437.46 455.741 436.9 453.221 436.92C450.721 436.9 449.321 437.46 449.341 438.44ZM480.629 431.92V433.04C480.629 434.22 480.629 435.7 480.249 437.6H482.669V439.08H466.629V437.6H478.369C478.749 435.84 478.789 434.5 478.789 433.4H468.629V431.92H480.629ZM468.509 442.12V440.64H480.629V445.2H470.389V447H481.069V448.48H468.549V443.8H478.789V442.12H468.509ZM488.954 434.68C488.934 436.34 489.754 438.4 491.514 439.62C493.254 438.44 494.034 436.4 494.074 434.68V432.52H495.914V434.68C495.894 436.82 497.054 439.02 499.394 440L498.394 441.4C496.694 440.64 495.554 439.28 494.974 437.64C494.374 439.32 493.254 440.82 491.474 441.6C489.694 440.8 488.554 439.26 487.994 437.58C487.374 439.2 486.234 440.64 484.594 441.4L483.594 440C485.874 438.96 487.074 436.66 487.074 434.68V432.52H488.954V434.68ZM483.514 446.36V444.84H499.514V446.36H483.514ZM514.959 431.16V448.64H513.079V431.16H514.959ZM500.559 443.96C505.239 441.76 507.499 438.6 507.859 434.52H501.439V433.04H509.759C509.739 438.16 507.559 442.6 501.559 445.48L500.559 443.96ZM530.925 431.16V438.12H533.645V439.68H530.925V448.64H529.085V431.16H530.925ZM517.285 443.96C521.685 441.78 524.065 438.64 524.465 434.56H518.165V433H526.365C526.345 438.06 524.105 442.58 518.325 445.4L517.285 443.96ZM552.292 431.16V438.12H555.012V439.68H552.292V448.64H550.452V431.16H552.292ZM538.652 443.96C543.052 441.78 545.432 438.64 545.832 434.56H539.532V433H547.732C547.712 438.06 545.472 442.58 539.692 445.4L538.652 443.96ZM569.698 435.88V437.4H557.658V431.48H559.498V435.88H569.698ZM555.538 440.76V439.24H571.538V440.76H555.538ZM557.418 445.4C557.438 443.34 559.718 442.18 563.498 442.2C567.278 442.18 569.538 443.34 569.538 445.4C569.538 447.44 567.278 448.58 563.498 448.6C559.718 448.58 557.438 447.44 557.418 445.4ZM559.338 445.4C559.298 446.5 560.838 447.14 563.498 447.16C566.158 447.14 567.678 446.5 567.698 445.4C567.678 444.24 566.158 443.66 563.498 443.64C560.838 443.66 559.298 444.24 559.338 445.4ZM586.183 431.16V435.56H588.703V437.12H586.183V441.36H584.343V431.16H586.183ZM572.463 434.36V432.88H576.743V431H578.583V432.88H582.863V434.36H572.463ZM573.423 438.16C573.403 436.28 575.103 435.08 577.663 435.08C580.183 435.08 581.903 436.28 581.903 438.16C581.903 440.02 580.183 441.24 577.663 441.24C575.103 441.24 573.403 440.02 573.423 438.16ZM574.983 448.44V442.08H576.823V443.76H584.343V442.08H586.183V448.44H574.983ZM575.183 438.16C575.183 439.2 576.183 439.84 577.663 439.84C579.143 439.84 580.143 439.2 580.143 438.16C580.143 437.12 579.143 436.46 577.663 436.48C576.183 436.46 575.183 437.12 575.183 438.16ZM576.823 446.96H584.343V445.24H576.823V446.96ZM603.828 431.16V448.64H601.988V431.16H603.828ZM590.388 444.2V432.88H592.228V442.6C594.768 442.6 597.468 442.38 600.268 441.8L600.508 443.36C597.428 444 594.608 444.22 591.868 444.2H590.388ZM619.833 431.16V437.92H622.633V439.48H619.833V448.68H617.993V431.16H619.833ZM606.953 444.36V432.84H615.113V434.36H608.793V442.8C611.733 442.78 613.933 442.66 616.433 442.2L616.673 443.8C613.933 444.26 611.593 444.36 608.353 444.36H606.953ZM625.078 447.12C624.318 447.14 623.678 446.52 623.678 445.76C623.678 444.98 624.318 444.36 625.078 444.36C625.818 444.36 626.458 444.98 626.438 445.76C626.458 446.52 625.818 447.14 625.078 447.12ZM638.26 433.96C638.26 436.26 639.86 438.38 642.5 439.24L641.5 440.72C639.58 440.04 638.14 438.66 637.36 436.94C636.62 438.9 635.14 440.44 633.1 441.2L632.1 439.72C634.82 438.74 636.4 436.4 636.42 433.8V432.08H638.26V433.96ZM634.46 445.36C634.46 443.32 636.7 442.14 640.34 442.12C643.92 442.14 646.14 443.32 646.14 445.36C646.14 447.44 643.92 448.64 640.34 448.64C636.7 448.64 634.46 447.44 634.46 445.36ZM636.3 445.36C636.3 446.54 637.8 447.16 640.34 447.16C642.84 447.16 644.32 446.54 644.34 445.36C644.32 444.26 642.84 443.6 640.34 443.6C637.8 443.6 636.3 444.26 636.3 445.36ZM644.14 441.72V431.16H645.98V435.56H648.5V437.12H645.98V441.72H644.14ZM662.865 431.16V436.24H665.425V437.76H662.865V443.84H661.025V431.16H662.865ZM649.905 440.8V432.64H657.705V434.16H651.745V439.24C655.145 439.26 657.045 439.16 659.265 438.68L659.465 440.2C657.085 440.68 655.025 440.8 651.265 440.8H649.905ZM651.785 448.28V442.52H653.625V446.8H663.625V448.28H651.785ZM679.513 432.28C679.513 436.7 676.473 439.86 671.393 441.28L670.633 439.84C674.693 438.72 677.173 436.52 677.553 433.76H671.553V432.28H679.513ZM673.633 448.44V441.8H685.073V448.44H673.633ZM675.433 446.96H683.233V443.28H675.433V446.96ZM679.593 437.08V435.56H683.233V431.16H685.073V441.08H683.233V437.08H679.593ZM692.718 434.44C692.718 436.42 693.918 438.4 696.198 439.28L695.198 440.72C693.598 440.06 692.458 438.86 691.818 437.4C691.178 439.02 689.978 440.44 688.278 441.16L687.278 439.72C689.658 438.7 690.918 436.44 690.918 434.44V432.2H692.718V434.44ZM690.398 444.16V442.64H702.278V448.64H700.438V444.16H690.398ZM696.758 441.64V431.48H698.478V435.64H700.518V431.16H702.278V441.76H700.518V437.16H698.478V441.64H696.758ZM710.363 434.92C710.383 436.94 711.963 438.82 714.643 439.6L713.763 441.04C711.763 440.46 710.283 439.22 709.503 437.62C708.723 439.42 707.203 440.82 705.123 441.48L704.203 440.04C706.903 439.24 708.543 437.18 708.523 434.92V434.68H704.723V433.2H708.523V431.08H710.403V433.2H714.163V434.68H710.363V434.92ZM706.483 445.44C706.483 443.4 708.703 442.22 712.363 442.24C715.963 442.22 718.163 443.4 718.163 445.44C718.163 447.46 715.963 448.62 712.363 448.6C708.703 448.62 706.483 447.46 706.483 445.44ZM708.323 445.44C708.323 446.56 709.803 447.18 712.363 447.2C714.863 447.18 716.343 446.56 716.363 445.44C716.343 444.28 714.863 443.68 712.363 443.68C709.803 443.68 708.323 444.28 708.323 445.44ZM716.163 441.84V431.16H718.003V435.56H720.523V437.08H718.003V441.84H716.163ZM736.168 431.16V448.64H734.408V431.16H736.168ZM721.328 438.72C721.328 434.92 722.808 432.56 725.088 432.56C727.208 432.56 728.668 434.58 728.888 437.88H730.848V431.48H732.648V447.8H730.848V439.36H728.908C728.728 442.78 727.248 444.9 725.088 444.88C722.808 444.9 721.328 442.52 721.328 438.72ZM723.048 438.72C723.048 441.5 723.828 443.14 725.088 443.12C726.388 443.14 727.188 441.5 727.208 438.72C727.188 435.92 726.388 434.3 725.088 434.28C723.828 434.3 723.048 435.92 723.048 438.72ZM744.333 435.6C744.333 438.82 746.133 442 748.813 443.2L747.693 444.68C745.693 443.7 744.173 441.72 743.413 439.32C742.633 441.84 741.113 443.98 739.093 445L737.933 443.52C740.633 442.22 742.433 438.86 742.453 435.6V432.6H744.333V435.6ZM746.893 438.48V436.96H750.773V431.16H752.613V448.68H750.773V438.48H746.893ZM764.661 435C764.681 436.98 765.941 438.9 768.141 439.68L767.301 441.12C765.641 440.48 764.461 439.28 763.841 437.8C763.241 439.4 762.061 440.72 760.381 441.4L759.461 440.04C761.701 439.14 762.921 437.12 762.941 435V434.84H759.861V433.36H762.941V431.36H764.661V433.36H767.661V434.84H764.661V435ZM762.421 444.28V442.76H774.301V448.64H772.461V444.28H762.421ZM768.781 441.8V431.48H770.541V435.76H772.541V431.16H774.301V441.88H772.541V437.28H770.541V441.8H768.781ZM781.987 432.4C784.747 432.4 786.727 434.12 786.747 436.56C786.727 439.04 784.747 440.74 781.987 440.76C779.227 440.74 777.207 439.04 777.227 436.56C777.207 434.12 779.227 432.4 781.987 432.4ZM776.347 443.36C779.547 443.38 783.967 443.36 787.787 442.8L787.947 444.16C783.967 444.9 779.727 444.92 776.587 444.92L776.347 443.36ZM779.027 436.56C779.027 438.12 780.267 439.14 781.987 439.12C783.667 439.14 784.927 438.12 784.947 436.56C784.927 435.04 783.667 434.02 781.987 434C780.267 434.02 779.027 435.04 779.027 436.56ZM788.907 448.68V431.16H790.747V448.68H788.907ZM812.635 431.16V448.64H810.875V431.16H812.635ZM797.395 443.84C799.855 442.34 801.135 439.16 801.115 436.04V434.64H797.915V433.12H805.915V434.64H802.915V436.04C802.915 439.04 804.115 442.02 806.595 443.44L805.475 444.8C803.795 443.8 802.655 442.04 802.035 439.92C801.415 442.2 800.235 444.14 798.515 445.2L797.395 443.84ZM804.635 438.88V437.36H807.355V431.52H809.115V447.76H807.355V438.88H804.635ZM828.44 431.88V437.88H823.44V439.92H830.48V441.44H814.52V439.92H821.56V437.88H816.56V431.88H828.44ZM816.28 444.56V443.08H828.52V448.64H826.64V444.56H816.28ZM818.36 436.4H826.6V433.36H818.36V436.4ZM839.365 431.44C843.325 431.44 845.625 432.52 845.605 434.44C845.625 436.42 843.325 437.48 839.365 437.48C835.425 437.48 833.125 436.42 833.125 434.44C833.125 432.52 835.425 431.44 839.365 431.44ZM831.405 440.04V438.56H847.365V440.04H831.405ZM833.325 442.8V441.4H845.365V445.48H835.165V447.04H845.845V448.48H833.365V444.16H843.525V442.8H833.325ZM835.045 434.44C835.045 435.54 836.585 436.1 839.365 436.12C842.185 436.1 843.725 435.54 843.725 434.44C843.725 433.42 842.185 432.82 839.365 432.84C836.585 432.82 835.045 433.42 835.045 434.44ZM867.293 431.16V440.56H865.453V431.16H867.293ZM853.133 436.04C853.133 433.62 855.113 431.96 857.813 431.96C860.473 431.96 862.453 433.62 862.453 436.04C862.453 438.42 860.473 440.08 857.813 440.08C855.113 440.08 853.133 438.42 853.133 436.04ZM854.933 436.04C854.933 437.54 856.133 438.54 857.813 438.56C859.433 438.54 860.633 437.54 860.613 436.04C860.633 434.52 859.433 433.52 857.813 433.52C856.133 433.52 854.933 434.52 854.933 436.04ZM855.853 448.44V441.4H857.653V443.36H865.453V441.4H867.293V448.44H855.853ZM857.653 446.92H865.453V444.84H857.653V446.92ZM877.978 432.2V437.32H872.218V439.76C875.278 439.74 876.938 439.66 878.898 439.32L879.058 440.8C876.938 441.18 875.138 441.22 871.658 441.24H870.378V435.92H876.138V433.68H870.338V432.2H877.978ZM872.378 444.32V442.8H884.258V448.68H882.418V444.32H872.378ZM879.098 438.88V437.36H882.418V435.2H879.098V433.72H882.418V431.16H884.258V441.92H882.418V438.88H879.098ZM895.183 434.04V435.56H886.503V434.04H889.943V431.68H891.783V434.04H895.183ZM887.063 440.64C887.063 438.28 888.663 436.6 890.863 436.6C893.083 436.6 894.663 438.28 894.663 440.64C894.663 443.02 893.083 444.7 890.863 444.72C888.663 444.7 887.063 443.02 887.063 440.64ZM888.703 440.64C888.703 442.12 889.603 443.12 890.863 443.12C892.123 443.12 893.023 442.12 893.023 440.64C893.023 439.18 892.123 438.16 890.863 438.16C889.603 438.16 888.703 439.18 888.703 440.64ZM896.023 447.84V431.56H897.743V438.44H899.783V431.16H901.543V448.64H899.783V439.96H897.743V447.84H896.023ZM919.388 441V442.52H912.268V448.64H910.468V442.52H903.428V441H919.388ZM904.308 438.24C907.608 437.78 910.308 435.82 910.348 433.68H904.908V432.2H917.908V433.68H912.468C912.488 435.82 915.188 437.78 918.508 438.24L917.828 439.68C914.968 439.24 912.488 437.84 911.408 435.86C910.328 437.84 907.868 439.24 905.028 439.68L904.308 438.24ZM925.633 435.92C925.653 438.74 926.813 441.72 929.153 443.16L928.113 444.6C926.493 443.6 925.373 441.86 924.773 439.82C924.133 442.04 922.933 443.92 921.233 444.96L920.073 443.6C922.553 442.1 923.853 439 923.873 436.04V432.76H925.633V435.92ZM927.273 438.84V437.32H929.993V431.48H931.753V447.8H929.993V438.84H927.273ZM933.593 448.64V431.16H935.353V448.64H933.593ZM953.239 444.92V446.48H937.199V444.92H941.039V440.36C939.599 439.58 938.719 438.32 938.719 436.76C938.719 434 941.419 432.18 945.159 432.16C948.939 432.18 951.639 434 951.639 436.76C951.639 438.28 950.799 439.52 949.399 440.32V444.92H953.239ZM940.519 436.76C940.519 438.62 942.419 439.84 945.159 439.84C947.899 439.84 949.839 438.62 949.839 436.76C949.839 434.86 947.899 433.66 945.159 433.68C942.419 433.66 940.519 434.86 940.519 436.76ZM942.879 444.92H947.519V441.02C946.799 441.2 945.999 441.28 945.159 441.28C944.339 441.28 943.579 441.2 942.879 441.04V444.92ZM957.324 432.84L957.124 442.92H955.204L955.044 432.84H957.324ZM954.804 445.76C954.804 444.98 955.444 444.36 956.204 444.36C956.944 444.36 957.584 444.98 957.564 445.76C957.584 446.52 956.944 447.14 956.204 447.12C955.444 447.14 954.804 446.52 954.804 445.76Z" fill="#999999"/>
<circle cx="895" cy="134" r="42" fill="#EBEBEB"/>
<circle cx="869" cy="292" r="72" fill="#EBEBEB"/>
<path fill-rule="evenodd" clip-rule="evenodd" d="M673 404C767.993 404 845 326.993 845 232C845 137.007 767.993 60 673 60C633.818 60 597.697 73.1012 568.777 95.162C554.054 88.0134 537.5 84 520 84C458.696 84 409 133.249 409 194C409 253.667 456.938 302.238 516.728 303.953C543.965 363.011 603.696 404 673 404Z" fill="#EBEBEB"/>
<g clip-path="url(#clip0_473_7755)">
<path d="M815.175 161.943C815.175 159.593 815.085 157.243 814.905 154.983C813.33 134.962 804.919 118.24 790.346 106.354C776.582 95.1464 757.915 88.9548 737.809 88.9548C717.703 88.9548 699.082 95.1464 685.273 106.354C677.672 112.546 671.734 120.003 667.596 128.59C663.458 120.003 657.521 112.501 649.919 106.354C636.155 95.1464 617.489 88.9548 597.383 88.9548C577.277 88.9548 558.655 95.1464 544.846 106.354C530.228 118.24 521.817 134.917 520.287 154.983H520.018V312.168H814.905V168.903C815.085 166.643 815.175 164.293 815.175 161.943Z" fill="#B8B8B8"/>
<path d="M668.091 320.031C659.814 320.031 651.808 317.5 645.016 312.755L644.431 312.348L643.891 311.851C643.037 311.083 642.182 310.36 641.283 309.637H641.193C640.968 309.411 640.743 309.23 640.518 309.049H640.428C627.339 298.7 609.572 293.005 590.456 293.005H578.896V108.479H590.456C615.329 108.479 638.539 116.207 655.811 130.262C660.354 133.968 664.447 138.035 668.091 142.464C671.734 138.035 675.827 133.923 680.37 130.262C697.642 116.207 720.852 108.479 745.681 108.479H757.24V293.005H745.681C726.564 293.005 708.797 298.7 695.663 309.004L694.853 309.637C693.954 310.36 693.099 311.083 692.335 311.806L691.795 312.303L691.21 312.71C684.373 317.5 676.367 320.031 668.046 320.031H668.091Z" fill="white"/>
<path d="M667.506 299.333C662.828 299.333 658.33 297.932 654.507 295.356C653.517 294.497 652.528 293.638 651.493 292.78L650.414 291.921C635.66 280.306 616.319 273.482 595.493 272.442V122.353C614.295 123.393 631.522 129.629 644.476 140.16C652.168 146.442 658.24 154.079 662.513 162.847L667.551 173.242L672.589 162.847C676.862 154.079 682.889 146.442 690.626 140.16C703.58 129.629 720.807 123.393 739.608 122.353V272.442C718.783 273.482 699.397 280.351 684.598 291.966L683.654 292.689C682.574 293.548 681.585 294.407 680.64 295.265C676.772 297.886 672.274 299.287 667.551 299.287L667.506 299.333Z" fill="#B8B8B8"/>
<path d="M601.071 128.454C616.364 130.262 630.263 135.821 640.968 144.543C648.03 150.283 653.607 157.288 657.476 165.333L667.506 186.077L677.536 165.333C681.45 157.288 686.982 150.283 694.044 144.543C704.749 135.821 718.648 130.307 733.896 128.454V267.2C713.925 269.098 695.483 276.193 681 287.582L680.595 287.899L679.965 288.396C679.021 289.164 678.076 289.977 677.132 290.791C674.253 292.689 670.924 293.683 667.461 293.683C663.998 293.683 660.714 292.689 657.88 290.836C656.936 289.977 655.991 289.164 655.047 288.441C654.642 288.079 654.237 287.763 653.877 287.492C639.439 276.148 620.997 269.098 601.071 267.2V128.454ZM745.096 116.614C722.876 116.614 702.275 123.438 687.027 135.821C678.616 142.645 672.094 150.916 667.506 160.406C662.918 150.916 656.351 142.645 647.985 135.821C632.737 123.438 612.136 116.614 589.916 116.614V277.911C611.641 277.911 631.882 284.464 646.995 296.35C647.31 296.621 647.67 296.847 647.985 297.118C649.019 297.977 650.054 298.835 651.043 299.739C655.721 302.993 661.389 304.937 667.506 304.937C673.623 304.937 679.336 302.993 684.059 299.694C685.048 298.79 686.038 297.932 687.072 297.118C687.387 296.892 687.702 296.621 688.017 296.395C703.175 284.464 723.416 277.911 745.141 277.911V116.614H745.096Z" fill="#B8B8B8"/>
<path d="M592.39 187.568C556.811 187.568 520.872 208.176 520.872 254.274C520.872 300.372 556.811 320.98 592.39 320.98C627.969 320.98 663.908 300.372 663.908 254.274C663.908 208.176 628.014 187.568 592.39 187.568ZM592.39 288.938C560.049 288.938 557.486 262.409 557.486 254.319C557.486 246.23 560.049 219.701 592.39 219.701C624.73 219.701 627.294 246.23 627.294 254.319C627.294 262.409 624.775 288.938 592.39 288.938Z" fill="#2626BF"/>
<path d="M742.352 187.568C706.773 187.568 670.834 208.176 670.834 254.274C670.834 300.372 706.773 320.98 742.352 320.98C777.931 320.98 813.87 300.372 813.87 254.274C813.87 208.176 777.976 187.568 742.352 187.568ZM742.352 288.938C710.012 288.938 707.448 262.409 707.448 254.319C707.448 246.23 710.012 219.701 742.352 219.701C774.693 219.701 777.257 246.23 777.257 254.319C777.257 262.409 774.738 288.938 742.352 288.938Z" fill="#2626BF"/>
<path d="M797.003 174.145C796.868 190.325 812.026 203.34 827.904 200.629C846.975 197.736 856.871 175.275 846.031 159.231C831.142 137.222 797.407 147.481 797.003 174.01V174.145Z" fill="#B8B8B8"/>
<path d="M794.484 173.332C794.349 189.375 809.372 202.12 825.115 199.544C843.962 196.426 853.722 174.371 842.927 158.508C828.174 136.815 794.889 147.029 794.484 173.241V173.377V173.332Z" fill="#B8B8B8"/>
<path d="M791.92 172.473C791.785 188.381 806.718 200.991 822.326 198.415C840.993 195.296 850.573 173.377 839.823 157.74C825.205 136.363 792.325 146.487 791.965 172.383V172.518L791.92 172.473Z" fill="#B8B8B8"/>
<path d="M789.311 171.614C789.176 187.387 803.975 199.861 819.448 197.239C837.934 194.121 847.335 172.383 836.63 156.926C822.101 135.911 789.716 145.899 789.311 171.479V171.614Z" fill="#B8B8B8"/>
<path d="M786.702 170.801C786.567 186.393 801.276 198.776 816.569 196.155C834.876 192.991 844.051 171.479 833.436 156.203C818.998 135.505 787.062 145.402 786.702 170.665V170.801Z" fill="#B8B8B8"/>
<path d="M784.049 169.987C783.914 185.444 798.487 197.691 813.645 195.07C831.772 191.906 840.768 170.53 830.198 155.48C815.894 135.143 784.408 144.905 784.049 169.852V169.987Z" fill="#B8B8B8"/>
<path d="M781.35 169.174C781.215 184.495 795.698 196.652 810.721 193.985C828.668 190.822 837.484 169.626 826.959 154.757C812.79 134.736 781.754 144.408 781.395 169.038V169.174H781.35Z" fill="#B8B8B8"/>
<path d="M778.651 168.36C778.516 183.546 792.909 195.567 807.753 192.856C825.475 189.647 834.156 168.677 823.676 154.034C809.597 134.329 779.011 143.956 778.651 168.225V168.36Z" fill="#B8B8B8"/>
<path d="M775.952 167.592C775.817 182.642 790.076 194.528 804.784 191.816C822.326 188.607 830.782 167.773 820.392 153.356C806.448 134.013 776.312 143.504 775.952 167.456V167.592Z" fill="#B8B8B8"/>
<path d="M773.208 166.869C773.073 181.783 787.242 193.533 801.77 190.822C819.133 187.568 827.409 166.959 817.063 152.723C803.21 133.697 773.523 143.097 773.208 166.779V166.914V166.869Z" fill="#B8B8B8"/>
<path d="M770.465 166.146C770.33 180.924 784.364 192.539 798.802 189.782C815.984 186.528 824.081 166.101 813.78 152.045C800.061 133.335 770.825 142.645 770.51 166.01V166.146H770.465Z" fill="#B8B8B8"/>
<path d="M767.721 165.513C767.586 180.156 781.53 191.635 795.788 188.879C812.791 185.625 820.707 165.333 810.452 151.503C796.868 133.155 768.036 142.329 767.721 165.378V165.513Z" fill="#B8B8B8"/>
<path d="M764.977 164.881C764.842 179.388 778.696 190.731 792.775 187.975C809.597 184.675 817.288 164.609 807.123 150.961C793.629 132.928 765.292 142.058 764.977 164.745V164.881Z" fill="#B8B8B8"/>
<path d="M762.233 164.338C762.098 178.665 775.817 189.918 789.761 187.161C806.403 183.862 813.915 163.977 803.795 150.509C790.436 132.793 762.548 141.832 762.233 164.203V164.338Z" fill="#B8B8B8"/>
<path d="M759.489 163.841C759.354 178.032 772.983 189.15 786.792 186.348C803.255 183.003 810.586 163.299 800.511 150.102C787.287 132.748 759.804 141.651 759.534 163.706V163.841H759.489Z" fill="#B8B8B8"/>
<path d="M756.791 163.389C756.656 177.444 770.15 188.427 783.824 185.625C800.106 182.28 807.258 162.756 797.228 149.741C784.093 132.702 757.106 141.515 756.791 163.254V163.389Z" fill="#B8B8B8"/>
<path d="M754.047 162.982C753.912 176.902 767.316 187.749 780.81 184.947C796.913 181.602 803.885 162.259 793.899 149.424C780.9 132.702 754.317 141.425 754.047 162.892V163.028V162.982Z" fill="#B8B8B8"/>
<path d="M751.348 162.666C751.213 176.45 764.527 187.161 777.841 184.314C793.764 180.924 800.556 161.762 790.615 149.153C777.751 132.748 751.618 141.38 751.348 162.53V162.666Z" fill="#B8B8B8"/>
<path d="M748.694 162.44C748.559 176.089 761.739 186.664 774.963 183.817C790.705 180.427 797.272 161.446 787.422 149.017C774.693 132.974 748.964 141.515 748.739 162.304V162.44H748.694Z" fill="#B8B8B8"/>
<path d="M746.265 162.35C746.13 175.863 759.22 186.302 772.264 183.455C787.827 180.066 794.214 161.265 784.408 149.017C771.769 133.29 746.535 141.741 746.265 162.214V162.35Z" fill="#B8B8B8"/>
<path d="M743.747 162.305C743.612 175.682 756.566 185.986 769.475 183.139C784.858 179.704 791.065 161.129 781.305 149.063C768.8 133.652 744.017 142.012 743.747 162.169V162.305Z" fill="#B8B8B8"/>
<path d="M741.183 162.395C741.048 175.637 753.912 185.805 766.641 182.913C781.799 179.478 787.872 161.039 778.156 149.243C765.787 134.194 741.408 142.419 741.183 162.259V162.395Z" fill="#B8B8B8"/>
<path d="M738.529 162.576C738.394 175.682 751.168 185.715 763.718 182.823C778.696 179.343 784.588 161.13 774.918 149.515C762.683 134.782 738.754 142.916 738.529 162.44V162.576Z" fill="#B8B8B8"/>
<path d="M735.83 162.892C735.695 175.818 748.335 185.76 760.794 182.868C775.592 179.388 781.305 161.355 771.679 149.921C759.579 135.505 736.055 143.594 735.83 162.802V162.937V162.892Z" fill="#B8B8B8"/>
<path d="M733.087 163.299C732.952 176.088 745.501 185.941 757.78 183.003C772.399 179.523 777.931 161.626 768.351 150.418C756.341 136.318 733.311 144.317 733.087 163.208V163.344V163.299Z" fill="#B8B8B8"/>
<path d="M730.298 163.796C730.163 176.45 742.577 186.167 754.722 183.184C769.16 179.659 774.468 161.988 764.977 150.961C753.102 137.222 730.478 145.086 730.298 163.66V163.796Z" fill="#B8B8B8"/>
<path d="M727.464 164.338C727.329 176.857 739.654 186.438 751.618 183.455C765.877 179.93 771.004 162.44 761.559 151.593C749.819 138.171 727.644 145.944 727.464 164.203V164.338Z" fill="#B8B8B8"/>
<path d="M724.63 165.016C724.495 177.399 736.685 186.845 748.559 183.862C762.638 180.292 767.586 162.982 758.185 152.362C746.58 139.256 724.855 146.939 724.63 164.881V165.016Z" fill="#B8B8B8"/>
<path d="M721.752 165.785C721.617 178.032 733.716 187.342 745.411 184.314C759.31 180.744 764.078 163.615 754.722 153.221C743.252 140.476 721.932 148.069 721.752 165.649V165.785Z" fill="#B8B8B8"/>
<path d="M718.918 166.643C718.783 178.755 730.793 187.929 742.307 184.901C756.026 181.331 760.614 164.383 751.303 154.169C739.968 141.741 719.098 149.243 718.918 166.507V166.643Z" fill="#B8B8B8"/>
<path d="M716.084 167.592C715.949 179.569 727.824 188.607 739.203 185.579C752.742 181.964 757.15 165.197 747.885 155.209C736.685 143.097 716.219 150.509 716.084 167.457V167.592Z" fill="#B8B8B8"/>
<path d="M713.295 168.586C713.16 180.427 724.945 189.331 736.19 186.303C749.549 182.687 753.777 166.101 744.556 156.294C733.491 144.498 713.475 151.82 713.295 168.496V168.632V168.586Z" fill="#B8B8B8"/>
<path d="M710.552 169.716C710.417 181.376 722.066 190.189 733.176 187.116C746.356 183.5 750.404 167.095 741.228 157.469C730.298 145.989 710.687 153.22 710.552 169.581V169.716Z" fill="#B8B8B8"/>
<path d="M707.808 170.891C707.718 182.416 719.233 191.093 730.163 188.02C743.162 184.359 747.03 168.134 737.899 158.734C727.104 147.616 707.943 154.712 707.808 170.756V170.891Z" fill="#B8B8B8"/>
<path d="M705.154 172.112C705.064 183.501 716.489 192.042 727.239 188.969C740.058 185.308 743.746 169.264 734.661 160.045C724 149.244 705.289 156.294 705.154 171.976V172.112Z" fill="#B8B8B8"/>
<path d="M702.59 173.467C702.5 184.721 713.79 193.127 724.45 190.008C737.045 186.302 740.598 170.439 731.557 161.446C721.032 150.961 702.725 157.921 702.59 173.287V173.422V173.467Z" fill="#B8B8B8"/>
<path d="M700.071 174.868C699.981 185.986 711.181 194.257 721.662 191.138C734.076 187.432 737.449 171.75 728.454 162.982C718.063 152.814 700.206 159.683 700.071 174.733V174.868Z" fill="#B8B8B8"/>
<path d="M697.642 176.314C697.552 187.297 708.617 195.432 718.963 192.313C731.197 188.607 734.391 173.106 725.44 164.519C715.184 154.667 697.732 161.446 697.642 176.179V176.314Z" fill="#B8B8B8"/>
<path d="M695.348 177.851C695.258 188.698 706.234 196.697 716.399 193.579C728.454 189.828 731.467 174.507 722.561 166.146C712.441 156.61 695.438 163.299 695.348 177.761V177.896V177.851Z" fill="#B8B8B8"/>
<path d="M693.145 179.433C693.055 190.144 703.94 198.008 713.97 194.844C725.845 191.093 728.679 175.953 719.818 167.773C709.832 158.553 693.235 165.197 693.145 179.297V179.433Z" fill="#B8B8B8"/>
<path d="M691.075 181.105C690.985 191.681 701.735 199.454 711.631 196.245C723.326 192.494 726.025 177.49 717.164 169.535C707.313 160.677 691.165 167.185 691.075 180.97V181.105Z" fill="#B8B8B8"/>
<path d="M689.141 182.822C689.051 193.217 699.711 200.9 709.427 197.691C720.942 193.895 723.461 179.117 714.645 171.343C704.929 162.802 689.186 169.219 689.141 182.687V182.822Z" fill="#B8B8B8"/>
<path d="M687.207 184.721C687.117 194.98 697.642 202.527 707.223 199.318C718.558 195.522 720.897 180.924 712.126 173.332C702.59 165.106 687.252 171.434 687.207 184.585V184.721Z" fill="#B8B8B8"/>
<path d="M685.003 187.071C684.913 197.194 695.349 204.606 704.749 201.352C715.904 197.511 718.063 183.094 709.337 175.772C699.936 167.863 685.048 174.1 684.958 186.935V187.071H685.003Z" fill="#B8B8B8"/>
<path d="M683.024 189.376C682.934 199.363 693.234 206.64 702.545 203.386C713.52 199.544 715.499 185.308 706.818 178.167C697.552 170.575 683.069 176.721 683.024 189.24V189.376Z" fill="#B8B8B8"/>
<path d="M681.225 191.771C681.135 201.623 691.345 208.764 700.476 205.51C711.271 201.668 713.07 187.568 704.434 180.653C695.303 173.377 681.27 179.478 681.225 191.68V191.816V191.771Z" fill="#B8B8B8"/>
<path d="M679.561 194.121C679.471 203.838 689.591 210.843 698.542 207.544C709.157 203.657 710.822 189.782 702.185 183.048C693.549 176.315 679.561 182.099 679.561 193.985V194.121Z" fill="#B8B8B8"/>
<path d="M678.076 196.516C677.986 206.097 687.972 212.967 696.788 209.668C707.223 205.781 708.707 192.042 700.116 185.534C691.525 179.026 678.076 184.811 678.031 196.381V196.516H678.076Z" fill="#B8B8B8"/>
<path d="M676.727 198.957C676.637 208.402 686.532 215.136 695.213 211.837C705.424 207.95 706.773 194.347 698.227 188.065C689.681 181.783 676.727 187.568 676.727 198.821V198.957Z" fill="#B8B8B8"/>
<path d="M675.512 201.442C675.422 210.752 685.183 217.351 693.729 214.052C703.76 210.12 704.974 196.742 696.428 190.641C687.882 184.54 675.512 190.37 675.512 201.307V201.442Z" fill="#B8B8B8"/>
<path d="M674.433 203.973C674.343 213.102 684.014 219.61 692.38 216.266C702.23 212.334 703.265 199.092 694.764 193.262C686.263 187.432 674.433 193.262 674.433 203.838V203.973Z" fill="#B8B8B8"/>
<path d="M673.443 206.549C673.353 215.543 682.934 221.915 691.12 218.571C700.791 214.639 701.691 201.533 693.19 195.929C684.688 190.325 673.398 196.155 673.398 206.414V206.549H673.443Z" fill="#B8B8B8"/>
<path d="M672.589 209.171C672.499 218.029 681.945 224.265 690.041 220.921C699.532 216.944 700.251 204.018 691.795 198.64C683.339 193.262 672.589 199.092 672.589 209.08V209.216V209.171Z" fill="#B8B8B8"/>
<path d="M671.779 211.837C671.689 220.56 681.045 226.661 688.961 223.271C698.272 219.294 698.812 206.504 690.401 201.352C682.529 196.516 671.734 202.03 671.779 211.701V211.837Z" fill="#B8B8B8"/>
<path d="M671.059 214.594C670.97 223.181 680.19 229.191 687.972 225.757C697.103 221.734 697.508 209.171 689.096 204.199C681.36 199.635 671.015 205.103 671.059 214.458V214.594Z" fill="#B8B8B8"/>
<path d="M670.43 217.396C670.34 225.847 679.471 231.722 687.072 228.288C696.023 224.265 696.248 211.792 687.882 207.092C680.325 202.843 670.34 208.221 670.385 217.26V217.396H670.43Z" fill="#B8B8B8"/>
<path d="M669.8 220.288C669.71 228.604 678.706 234.344 686.218 230.909C694.989 226.887 695.079 214.549 686.713 210.074C679.291 206.097 669.755 211.475 669.8 220.153V220.288Z" fill="#B8B8B8"/>
<path d="M669.26 223.226C669.17 231.406 678.076 237.01 685.408 233.53C693.999 229.463 693.954 217.305 685.588 213.102C678.346 209.442 669.215 214.729 669.26 223.09V223.226Z" fill="#B8B8B8"/>
<path d="M668.676 226.299C668.586 234.344 677.402 239.812 684.554 236.332C692.965 232.265 692.74 220.243 684.419 216.266C677.357 212.876 668.586 218.119 668.676 226.163V226.299Z" fill="#B8B8B8"/>
<path d="M668.181 229.417C668.091 237.281 676.772 242.659 683.789 239.179C692.02 235.112 691.66 223.181 683.339 219.475C676.412 216.356 668.091 221.554 668.136 229.282V229.417H668.181Z" fill="#B8B8B8"/>
<path d="M667.641 232.626C667.551 240.354 676.142 245.597 682.979 242.117C691.03 238.004 690.491 226.254 682.214 222.774C675.467 219.927 667.506 225.079 667.596 232.536V232.671L667.641 232.626Z" fill="#B8B8B8"/>
<path d="M667.056 235.971C666.966 243.563 675.512 248.76 682.169 245.145C690.086 241.168 689.411 229.237 681.09 226.164C674.523 223.497 666.966 228.74 667.056 235.835V235.971Z" fill="#B8B8B8"/>
<path d="M538.054 174.145C538.189 190.325 523.031 203.341 507.153 200.629C488.082 197.737 478.141 175.275 489.026 159.186C503.915 137.177 537.649 147.436 538.054 173.965V174.1V174.145Z" fill="#B8B8B8"/>
<path d="M540.573 173.332C540.708 189.375 525.685 202.12 509.942 199.544C491.095 196.426 481.335 174.371 492.13 158.508C506.883 136.815 540.168 147.029 540.573 173.241V173.377V173.332Z" fill="#B8B8B8"/>
<path d="M543.137 172.473C543.272 188.381 528.338 200.991 512.73 198.415C494.109 195.296 484.528 173.377 495.278 157.74C509.897 136.363 542.777 146.487 543.137 172.383V172.518V172.473Z" fill="#B8B8B8"/>
<path d="M545.745 171.614C545.88 187.387 531.082 199.861 515.609 197.239C497.122 194.121 487.722 172.383 498.427 156.926C512.955 135.911 545.341 145.899 545.745 171.479V171.614Z" fill="#B8B8B8"/>
<path d="M548.354 170.801C548.489 186.393 533.781 198.776 518.488 196.155C500.181 192.991 491.005 171.479 501.62 156.203C516.059 135.505 547.994 145.402 548.354 170.665V170.801Z" fill="#B8B8B8"/>
<path d="M551.008 169.987C551.143 185.444 536.57 197.691 521.412 195.07C503.285 191.906 494.289 170.53 504.859 155.48C519.163 135.143 550.648 144.905 551.008 169.852V169.987Z" fill="#B8B8B8"/>
<path d="M553.707 169.174C553.842 184.495 539.359 196.652 524.335 193.985C506.389 190.822 497.573 169.626 508.098 154.757C522.266 134.736 553.302 144.408 553.662 169.038V169.174H553.707Z" fill="#B8B8B8"/>
<path d="M556.406 168.36C556.541 183.546 542.147 195.567 527.304 192.856C509.582 189.647 500.901 168.677 511.381 154.034C525.46 134.329 556.046 143.956 556.406 168.225V168.36Z" fill="#B8B8B8"/>
<path d="M559.104 167.592C559.239 182.642 544.981 194.528 530.272 191.816C512.73 188.607 504.274 167.773 514.665 153.356C528.608 134.013 558.745 143.504 559.104 167.456V167.592Z" fill="#B8B8B8"/>
<path d="M561.848 166.869C561.983 181.783 547.815 193.533 533.286 190.822C515.924 187.568 507.648 166.959 517.993 152.723C531.847 133.697 561.533 143.097 561.848 166.779V166.914V166.869Z" fill="#B8B8B8"/>
<path d="M564.547 166.146C564.682 180.924 550.648 192.539 536.21 189.782C519.028 186.528 510.931 166.101 521.232 152.045C534.95 133.335 564.187 142.645 564.502 166.01V166.146H564.547Z" fill="#B8B8B8"/>
<path d="M567.291 165.513C567.426 180.156 553.482 191.635 539.224 188.879C522.221 185.625 514.305 165.333 524.56 151.503C538.144 133.155 566.976 142.329 567.291 165.378V165.513Z" fill="#B8B8B8"/>
<path d="M570.035 164.881C570.17 179.388 556.316 190.731 542.237 187.975C525.415 184.675 517.723 164.609 527.889 150.961C541.383 132.928 569.72 142.058 570.035 164.745V164.881Z" fill="#B8B8B8"/>
<path d="M572.778 164.338C572.913 178.665 559.195 189.918 545.251 187.161C528.608 183.862 521.097 163.977 531.217 150.509C544.576 132.793 572.464 141.832 572.778 164.203V164.338Z" fill="#B8B8B8"/>
<path d="M575.522 163.841C575.657 178.032 562.028 189.15 548.219 186.348C531.757 183.003 524.425 163.299 534.501 150.102C547.725 132.748 575.207 141.651 575.477 163.706V163.841H575.522Z" fill="#B8B8B8"/>
<path d="M578.266 163.389C578.401 177.444 564.907 188.427 551.233 185.625C534.95 182.28 527.799 162.756 537.829 149.741C550.963 132.702 577.951 141.515 578.266 163.254V163.389Z" fill="#B8B8B8"/>
<path d="M580.965 162.982C581.1 176.902 567.696 187.749 554.202 184.947C538.099 181.602 531.127 162.259 541.113 149.424C554.112 132.702 580.695 141.425 580.965 162.892V163.028V162.982Z" fill="#B8B8B8"/>
<path d="M583.664 162.666C583.799 176.45 570.485 187.161 557.171 184.314C541.248 180.924 534.456 161.762 544.396 149.153C557.261 132.748 583.394 141.38 583.664 162.53V162.666Z" fill="#B8B8B8"/>
<path d="M586.362 162.44C586.497 176.089 573.318 186.664 560.094 183.817C544.351 180.427 537.784 161.446 547.635 149.017C560.364 132.974 586.093 141.515 586.317 162.304V162.44H586.362Z" fill="#B8B8B8"/>
<path d="M588.791 162.35C588.926 175.863 575.837 186.302 562.793 183.455C547.23 180.066 540.843 161.265 550.648 149.017C563.288 133.29 588.521 141.741 588.791 162.214V162.35Z" fill="#B8B8B8"/>
<path d="M591.265 162.305C591.4 175.682 578.446 185.986 565.536 183.139C550.153 179.704 543.946 161.129 553.707 149.063C566.211 133.652 590.995 142.012 591.265 162.169V162.305Z" fill="#B8B8B8"/>
<path d="M593.829 162.395C593.964 175.637 581.1 185.805 568.37 182.913C553.212 179.478 547.14 161.039 556.856 149.243C569.225 134.194 593.604 142.419 593.829 162.259V162.395Z" fill="#B8B8B8"/>
<path d="M596.483 162.576C596.618 175.682 583.844 185.715 571.294 182.823C556.316 179.343 550.424 161.13 560.094 149.515C572.329 134.782 596.258 142.916 596.483 162.44V162.576Z" fill="#B8B8B8"/>
<path d="M599.226 162.892C599.361 175.818 586.722 185.76 574.263 182.868C559.464 179.388 553.752 161.355 563.378 149.921C575.477 135.505 599.002 143.594 599.226 162.802V162.937V162.892Z" fill="#B8B8B8"/>
<path d="M601.97 163.299C602.105 176.088 589.556 185.941 577.276 183.003C562.658 179.523 557.125 161.626 566.706 150.418C578.716 136.318 601.745 144.317 601.97 163.208V163.344V163.299Z" fill="#B8B8B8"/>
<path d="M604.759 163.796C604.894 176.45 592.48 186.167 580.335 183.184C565.897 179.659 560.589 161.988 570.08 150.961C581.954 137.222 604.579 145.086 604.759 163.66V163.796Z" fill="#B8B8B8"/>
<path d="M607.593 164.338C607.728 176.857 595.403 186.438 583.439 183.455C569.18 179.93 564.052 162.44 573.498 151.593C585.238 138.171 607.413 145.944 607.593 164.203V164.338Z" fill="#B8B8B8"/>
<path d="M610.426 165.016C610.561 177.399 598.372 186.845 586.497 183.862C572.418 180.292 567.471 162.982 576.871 152.362C588.476 139.256 610.201 146.939 610.426 164.881V165.016Z" fill="#B8B8B8"/>
<path d="M613.26 165.785C613.395 178.032 601.296 187.342 589.601 184.314C575.702 180.744 570.934 163.615 580.29 153.221C591.76 140.476 613.08 148.069 613.26 165.649V165.785Z" fill="#B8B8B8"/>
<path d="M616.094 166.643C616.229 178.755 604.219 187.929 592.704 184.901C578.986 181.331 574.398 164.383 583.708 154.169C595.043 141.741 615.914 149.243 616.094 166.507V166.643Z" fill="#B8B8B8"/>
<path d="M618.928 167.592C619.063 179.569 607.188 188.607 595.808 185.579C582.269 181.964 577.861 165.197 587.127 155.209C598.327 143.097 618.793 150.509 618.928 167.457V167.592Z" fill="#B8B8B8"/>
<path d="M621.761 168.586C621.896 180.427 610.111 189.331 598.866 186.303C585.507 182.687 581.279 166.101 590.5 156.294C601.565 144.498 621.581 151.82 621.761 168.496V168.632V168.586Z" fill="#B8B8B8"/>
<path d="M624.505 169.716C624.64 181.376 612.99 190.189 601.88 187.116C588.701 183.5 584.653 167.095 593.829 157.469C604.759 145.989 624.37 153.22 624.505 169.581V169.716Z" fill="#B8B8B8"/>
<path d="M627.204 170.891C627.294 182.416 615.779 191.093 604.849 188.02C591.85 184.359 587.982 168.134 597.112 158.734C607.908 147.616 627.069 154.712 627.204 170.756V170.891Z" fill="#B8B8B8"/>
<path d="M629.858 172.112C629.948 183.501 618.523 192.042 607.773 188.969C594.954 185.308 591.265 169.264 600.351 160.045C611.011 149.244 629.723 156.294 629.858 171.976V172.112Z" fill="#B8B8B8"/>
<path d="M632.467 173.467C632.557 184.721 621.267 193.127 610.606 190.008C598.012 186.302 594.459 170.439 603.5 161.446C614.025 150.961 632.332 157.921 632.467 173.287V173.422V173.467Z" fill="#B8B8B8"/>
<path d="M634.986 174.868C635.076 185.986 623.876 194.257 613.395 191.138C600.981 187.432 597.607 171.75 606.603 162.982C616.994 152.814 634.851 159.683 634.986 174.733V174.868Z" fill="#B8B8B8"/>
<path d="M637.369 176.314C637.459 187.297 626.394 195.432 616.049 192.313C603.814 188.607 600.621 173.106 609.572 164.519C619.827 154.667 637.279 161.446 637.369 176.179V176.314Z" fill="#B8B8B8"/>
<path d="M639.708 177.851C639.798 188.698 628.823 196.697 618.658 193.579C606.603 189.828 603.59 174.507 612.495 166.146C622.616 156.61 639.618 163.299 639.708 177.761V177.896V177.851Z" fill="#B8B8B8"/>
<path d="M641.867 179.433C641.957 190.144 631.072 198.008 621.041 194.844C609.167 191.093 606.333 175.953 615.194 167.773C625.18 158.553 641.777 165.197 641.867 179.297V179.433Z" fill="#B8B8B8"/>
<path d="M643.936 181.105C644.026 191.681 633.276 199.454 623.381 196.245C611.686 192.494 608.987 177.49 617.848 169.535C627.699 160.677 643.846 167.185 643.936 180.97V181.105Z" fill="#B8B8B8"/>
<path d="M645.87 182.822C645.96 193.217 635.3 200.9 625.585 197.691C614.07 193.895 611.551 179.117 620.367 171.343C630.083 162.802 645.825 169.219 645.87 182.687V182.822Z" fill="#B8B8B8"/>
<path d="M647.805 184.721C647.895 194.98 637.369 202.527 627.789 199.318C616.454 195.522 614.115 180.924 622.886 173.332C632.421 165.106 647.76 171.434 647.805 184.585V184.721Z" fill="#B8B8B8"/>
<path d="M650.009 187.071C650.098 197.194 639.663 204.606 630.262 201.352C619.107 197.511 616.948 183.094 625.674 175.772C635.075 167.863 649.964 174.1 650.054 186.935V187.071H650.009Z" fill="#B8B8B8"/>
<path d="M652.033 189.376C652.123 199.363 641.822 206.64 632.512 203.386C621.537 199.544 619.557 185.308 628.238 178.167C637.504 170.575 651.988 176.721 652.033 189.24V189.376Z" fill="#B8B8B8"/>
<path d="M653.832 191.771C653.922 201.623 643.712 208.764 634.581 205.51C623.786 201.668 621.986 187.568 630.622 180.653C639.753 173.377 653.787 179.478 653.832 191.68V191.816V191.771Z" fill="#B8B8B8"/>
<path d="M655.496 194.121C655.586 203.838 645.466 210.843 636.515 207.544C625.899 203.657 624.235 189.782 632.871 183.048C641.507 176.315 655.496 182.099 655.496 193.985V194.121Z" fill="#B8B8B8"/>
<path d="M656.981 196.516C657.07 206.097 647.085 212.967 638.269 209.668C627.834 205.781 626.349 192.042 634.94 185.534C643.532 179.026 656.981 184.811 657.026 196.381V196.516H656.981Z" fill="#B8B8B8"/>
<path d="M658.33 198.957C658.42 208.402 648.524 215.136 639.843 211.837C629.633 207.95 628.283 194.347 636.829 188.065C645.375 181.783 658.33 187.568 658.33 198.821V198.957Z" fill="#B8B8B8"/>
<path d="M659.499 201.442C659.589 210.752 649.829 217.351 641.282 214.052C631.252 210.12 630.037 196.742 638.584 190.641C647.13 184.54 659.499 190.37 659.499 201.307V201.442Z" fill="#B8B8B8"/>
<path d="M660.624 203.973C660.714 213.102 651.043 219.61 642.677 216.266C632.826 212.334 631.792 199.092 640.293 193.262C648.794 187.432 660.624 193.262 660.624 203.838V203.973Z" fill="#B8B8B8"/>
<path d="M661.568 206.549C661.658 215.543 652.078 221.915 643.891 218.571C634.221 214.639 633.321 201.533 641.822 195.929C650.323 190.325 661.613 196.155 661.613 206.414V206.549H661.568Z" fill="#B8B8B8"/>
<path d="M662.468 209.171C662.558 218.029 653.112 224.265 645.016 220.921C635.525 216.944 634.805 204.018 643.261 198.64C651.718 193.262 662.468 199.092 662.468 209.08V209.216V209.171Z" fill="#B8B8B8"/>
<path d="M663.233 211.837C663.323 220.56 653.967 226.661 646.05 223.271C636.74 219.294 636.2 206.504 644.611 201.352C652.483 196.516 663.278 202.03 663.233 211.701V211.837Z" fill="#B8B8B8"/>
<path d="M663.952 214.594C664.042 223.181 654.821 229.191 647.04 225.757C637.909 221.734 637.504 209.171 645.915 204.199C653.652 199.635 663.997 205.103 663.952 214.458V214.594Z" fill="#B8B8B8"/>
<path d="M664.627 217.396C664.717 225.847 655.586 231.722 647.984 228.288C639.033 224.265 638.809 211.792 647.175 207.092C654.731 202.843 664.717 208.221 664.672 217.26V217.396H664.627Z" fill="#B8B8B8"/>
<path d="M665.212 220.288C665.302 228.604 656.306 234.344 648.794 230.909C640.023 226.887 639.933 214.549 648.299 210.074C655.721 206.097 665.257 211.475 665.212 220.153V220.288Z" fill="#B8B8B8"/>
<path d="M665.796 223.226C665.886 231.406 656.98 237.01 649.649 233.53C641.057 229.463 641.102 217.305 649.469 213.102C656.71 209.442 665.841 214.729 665.796 223.09V223.226Z" fill="#B8B8B8"/>
<path d="M666.336 226.299C666.426 234.344 657.61 239.812 650.458 236.332C642.047 232.265 642.272 220.243 650.593 216.266C657.655 212.876 666.426 218.119 666.336 226.163V226.299Z" fill="#B8B8B8"/>
<path d="M666.876 229.417C666.966 237.281 658.285 242.659 651.268 239.179C643.037 235.112 643.397 223.181 651.718 219.475C658.645 216.356 666.966 221.554 666.921 229.282V229.417H666.876Z" fill="#B8B8B8"/>
<path d="M667.416 232.626C667.506 240.354 658.915 245.597 652.078 242.117C644.026 238.004 644.566 226.254 652.842 222.774C659.589 219.927 667.551 225.079 667.461 232.536V232.671L667.416 232.626Z" fill="#B8B8B8"/>
<path d="M667.956 235.971C668.046 243.563 659.5 248.76 652.843 245.145C644.926 241.168 645.601 229.237 653.922 226.164C660.489 223.497 668.046 228.74 667.956 235.835V235.971Z" fill="#B8B8B8"/>
<path d="M667.506 351.396C663.053 351.396 658.735 350.085 655.046 347.554C654.102 346.696 653.157 345.882 652.123 345.069L651.088 344.255C635.525 332.008 614.7 325.274 592.48 325.274C573.633 325.274 556.001 330.019 541.383 339.058L540.843 339.419C538.099 341.046 535.176 341.86 532.162 341.86C522.941 341.86 515.429 334.312 515.429 325.048V247.992L515.699 245.958C517.229 226.163 525.64 209.577 539.898 197.962C553.617 186.799 572.329 180.653 592.48 180.653C612.631 180.653 631.342 186.799 645.106 197.962C652.528 204.018 658.375 211.34 662.468 219.836L667.506 230.231L672.544 219.836C676.637 211.385 682.484 204.018 689.906 197.962C703.625 186.799 722.336 180.653 742.487 180.653C762.638 180.653 781.35 186.799 795.113 197.962C809.372 209.577 817.738 226.163 819.312 245.958C819.492 248.263 819.582 250.568 819.582 252.963C819.582 255.359 819.492 257.664 819.312 259.968V328.166C817.828 336.12 810.946 341.86 802.85 341.86C799.926 341.86 797.002 341.092 794.484 339.6L793.314 338.877C778.786 329.974 761.199 325.319 742.532 325.319C720.312 325.319 699.486 332.098 683.878 344.391L682.979 345.114C681.944 345.927 681 346.786 680.055 347.599C676.367 350.13 672.004 351.441 667.551 351.441L667.506 351.396Z" fill="white"/>
<path d="M742.532 186.212C761.469 186.212 778.876 191.906 791.65 202.301C804.874 213.057 812.341 227.926 813.78 246.41C813.96 248.625 814.05 250.839 814.05 252.963C814.05 255.088 813.96 257.302 813.78 259.517V259.968V260.42V327.624C812.611 332.686 808.158 336.301 802.895 336.301C800.961 336.301 799.162 335.804 797.452 334.9C797.048 334.629 796.643 334.403 796.238 334.132C780.81 324.731 762.278 319.76 742.577 319.76C719.098 319.76 697.058 326.946 680.415 340.052L680.01 340.368L679.426 340.866C678.481 341.634 677.581 342.402 676.682 343.171C673.983 344.933 670.834 345.882 667.596 345.882C664.357 345.882 661.254 344.978 658.555 343.216C657.655 342.402 656.711 341.634 655.811 340.911C655.406 340.594 655.002 340.278 654.642 340.007C638.089 326.991 616.049 319.805 592.57 319.805C572.734 319.805 554.022 324.867 538.594 334.403L537.784 334.9C536.075 335.894 534.231 336.391 532.252 336.391C526.09 336.391 521.097 331.375 521.097 325.183V249.845L521.367 246.591C522.806 228.107 530.273 213.283 543.542 202.482C556.271 192.132 573.723 186.393 592.615 186.393C611.506 186.393 628.958 192.087 641.733 202.482C648.525 207.995 653.877 214.729 657.61 222.412L667.641 243.156L677.671 222.412C681.405 214.684 686.757 207.995 693.549 202.482C706.278 192.132 723.731 186.393 742.622 186.393M742.532 175.004C721.077 175.004 701.151 181.602 686.397 193.579C678.301 200.177 671.959 208.176 667.506 217.351C663.053 208.176 656.756 200.177 648.614 193.579C633.906 181.602 613.98 175.004 592.48 175.004C570.979 175.004 551.098 181.602 536.39 193.579C520.782 206.278 511.786 224.085 510.122 245.506H509.852V325.003C509.852 337.386 519.838 347.419 532.162 347.419C536.3 347.419 540.123 346.289 543.452 344.346C543.722 344.165 544.037 343.984 544.307 343.803C557.89 335.397 574.668 330.878 592.48 330.878C613.485 330.878 633.051 337.205 647.67 348.684C647.985 348.91 648.3 349.181 648.614 349.452C649.649 350.266 650.594 351.125 651.583 351.983C656.081 355.147 661.569 357 667.506 357C673.443 357 678.976 355.147 683.474 351.938C684.418 351.079 685.408 350.266 686.397 349.452C686.712 349.226 686.982 349.001 687.297 348.729C701.915 337.205 721.482 330.878 742.532 330.878C760.209 330.878 776.852 335.352 790.391 343.622C790.84 343.894 791.245 344.165 791.695 344.436C794.978 346.334 798.802 347.464 802.85 347.464C813.96 347.464 823.181 339.329 824.89 328.618V260.375C825.07 257.935 825.205 255.449 825.205 252.963C825.205 250.478 825.115 247.947 824.89 245.506C823.226 224.085 814.23 206.233 798.667 193.579C783.958 181.602 763.987 175.004 742.532 175.004Z" fill="#B8B8B8"/>
<path d="M667.506 275.425V355.011" stroke="#B8B8B8" stroke-width="11.2081" stroke-miterlimit="10"/>
<path d="M592.525 175.004C571.069 175.004 551.143 181.602 536.435 193.579C520.827 206.278 511.831 224.085 510.167 245.506H509.897V325.003C509.897 337.386 519.882 347.419 532.207 347.419C536.345 347.419 540.168 346.289 543.497 344.346C543.767 344.165 544.082 343.984 544.351 343.803C557.935 335.397 574.713 330.878 592.525 330.878V175.004Z" fill="#B8B8B8"/>
<path d="M824.89 245.506C823.226 224.085 814.23 206.233 798.667 193.579C783.958 181.602 763.987 175.004 742.532 175.004V330.878C760.209 330.878 776.852 335.352 790.39 343.622C790.84 343.894 791.245 344.165 791.695 344.436C794.978 346.334 798.802 347.464 802.85 347.464C813.96 347.464 823.181 339.329 824.89 328.618V260.375C825.07 257.935 825.205 255.449 825.205 252.963C825.205 250.478 825.115 247.947 824.89 245.506Z" fill="#B8B8B8"/>
<path d="M592.525 330.878C571.069 330.878 551.143 324.279 536.435 312.303C519.073 298.157 509.897 277.639 509.897 252.918C509.897 228.197 519.073 207.679 536.435 193.533C551.143 181.557 571.069 174.959 592.525 174.959C613.98 174.959 633.906 181.557 648.659 193.533C666.022 207.634 675.197 228.197 675.197 252.918C675.197 277.639 666.022 298.157 648.659 312.303C633.951 324.279 614.025 330.878 592.525 330.878ZM592.525 229.508C577.906 229.508 573.813 236.242 572.464 238.456C569.18 243.834 568.82 250.387 568.82 252.963C568.82 255.54 569.18 262.047 572.464 267.471C573.813 269.685 577.951 276.419 592.525 276.419C607.098 276.419 611.236 269.685 612.631 267.471C615.914 262.093 616.274 255.54 616.274 252.963C616.274 250.387 615.914 243.834 612.631 238.456C611.281 236.242 607.188 229.508 592.525 229.508Z" fill="#B8B8B8"/>
<path d="M742.532 330.878C721.077 330.878 701.151 324.279 686.442 312.303C669.08 298.157 659.904 277.639 659.904 252.918C659.904 228.197 669.08 207.679 686.442 193.533C701.151 181.557 721.077 174.959 742.532 174.959C763.987 174.959 783.913 181.557 798.667 193.533C816.029 207.634 825.205 228.197 825.205 252.918C825.205 277.639 816.029 298.157 798.667 312.303C783.958 324.279 764.032 330.878 742.532 330.878ZM742.532 229.508C727.914 229.508 723.82 236.242 722.471 238.456C719.188 243.834 718.828 250.387 718.828 252.963C718.828 255.54 719.188 262.047 722.471 267.471C723.82 269.685 727.959 276.419 742.532 276.419C757.105 276.419 761.244 269.685 762.638 267.471C765.922 262.093 766.281 255.54 766.281 252.963C766.281 250.387 765.922 243.834 762.638 238.456C761.289 236.242 757.195 229.508 742.532 229.508Z" fill="#B8B8B8"/>
<path d="M592.525 186.212C556.946 186.212 521.007 206.821 521.007 252.918C521.007 299.016 556.946 319.625 592.525 319.625C628.104 319.625 664.043 299.016 664.043 252.918C664.043 206.821 628.149 186.212 592.525 186.212ZM592.525 287.582C560.184 287.582 557.621 261.053 557.621 252.964C557.621 244.874 560.184 218.345 592.525 218.345C624.865 218.345 627.429 244.874 627.429 252.964C627.429 261.053 624.91 287.582 592.525 287.582Z" fill="white"/>
<path d="M742.532 186.212C706.953 186.212 671.014 206.821 671.014 252.918C671.014 299.016 706.953 319.625 742.532 319.625C778.111 319.625 814.05 299.016 814.05 252.918C814.05 206.821 778.156 186.212 742.532 186.212ZM742.532 287.582C710.192 287.582 707.628 261.053 707.628 252.964C707.628 244.874 710.192 218.345 742.532 218.345C774.873 218.345 777.436 244.874 777.436 252.964C777.436 261.053 774.918 287.582 742.532 287.582Z" fill="white"/>
<path d="M717.389 235.383L739.204 226.661L766.192 238.14V271.764L749.324 279.221L718.873 277.685L711.181 252.918L717.389 235.383Z" fill="#B8B8B8"/>
<path d="M571.294 235.383L593.109 226.661L620.097 238.14V271.764L603.275 279.221L572.778 277.685L565.087 252.918L571.294 235.383Z" fill="#B8B8B8"/>
<path d="M592.39 264.985C599.594 264.985 605.434 259.117 605.434 251.879C605.434 244.641 599.594 238.773 592.39 238.773C585.186 238.773 579.346 244.641 579.346 251.879C579.346 259.117 585.186 264.985 592.39 264.985Z" fill="white"/>
<path d="M741.273 266.024C748.477 266.024 754.317 260.157 754.317 252.918C754.317 245.68 748.477 239.812 741.273 239.812C734.069 239.812 728.229 245.68 728.229 252.918C728.229 260.157 734.069 266.024 741.273 266.024Z" fill="white"/>
<path d="M667.596 295.355L650.414 302.089H684.823L667.596 295.355Z" fill="#B8B8B8"/>
</g>
<defs>
<clipPath id="clip0_473_7755">
<rect width="366" height="268" fill="white" transform="translate(484.528 89)"/>
</clipPath>
</defs>
</svg>
