<svg width="1344" height="123" viewBox="0 0 1344 123" fill="none" xmlns="http://www.w3.org/2000/svg">
<mask id="mask0_308_2880" style="mask-type:alpha" maskUnits="userSpaceOnUse" x="0" y="0" width="1344" height="123">
<rect y="0.345215" width="1344" height="122" rx="35" fill="#404998"/>
</mask>
<g mask="url(#mask0_308_2880)">
<g filter="url(#filter0_f_308_2880)">
<ellipse cx="774" cy="-227.655" rx="632" ry="578" fill="#232653"/>
</g>
<g filter="url(#filter1_f_308_2880)">
<circle cx="71" cy="-305.655" r="496" fill="#404998"/>
</g>
<g filter="url(#filter2_f_308_2880)">
<circle cx="1559" cy="-293.655" r="496" fill="#2F1DFF"/>
</g>
<g filter="url(#filter3_f_308_2880)">
<path d="M991 346.345C991 620.278 768.933 842.345 495 842.345C221.067 842.345 -1 620.278 -1 346.345C-1 72.412 221.067 -149.655 495 -149.655C768.933 -149.655 991 72.412 991 346.345Z" fill="#2626BF"/>
</g>
</g>
<path d="M66.3039 46.5607V49.8204H62.2818V64.1629H58.2928V35.7651H62.2818V46.5607H66.3039ZM40.7459 57.2126V38.4944H44.7238V53.9198C48.3591 53.8535 52.2597 53.522 56.3702 52.6933L56.7901 56.0192C52.0166 56.9695 47.4088 57.2237 43.2099 57.2126H40.7459ZM82.0043 38.1408V51.7983H68.3469V38.1408H82.0043ZM71.6176 63.732V54.4833H75.5955V60.5165H91.0872V63.732H71.6176ZM72.2916 48.6601H78.0706V41.3121H72.2916V48.6601ZM86.0706 56.5386V35.7872H90.0706V43.975H93.8938V47.2679H90.0706V56.5386H86.0706ZM104.357 37.6767C108.887 37.6767 112.235 40.5828 112.257 44.6601C112.235 48.7485 108.887 51.6436 104.357 51.6436C99.8816 51.6436 96.4561 48.7485 96.4672 44.6601C96.4561 40.5828 99.8816 37.6767 104.357 37.6767ZM95.2849 55.2347C100.357 55.2347 107.384 55.1684 113.473 54.3176L113.771 57.1905C107.473 58.417 100.721 58.4723 95.7379 58.4723L95.2849 55.2347ZM100.423 44.6601C100.423 46.9143 102.125 48.196 104.357 48.196C106.633 48.196 108.357 46.9143 108.368 44.6601C108.357 42.4391 106.644 41.1242 104.357 41.1242C102.114 41.1242 100.423 42.4391 100.423 44.6601ZM115.086 64.2955V35.7651H119.053V64.2955H115.086ZM154.084 35.7651V64.2292H150.051V35.7651H154.084ZM130.283 56.1739C137.62 52.6933 140.858 48.2071 141.498 41.8867H131.808V38.7596H145.565C145.554 47.3784 142.526 54.5496 132.36 59.3452L130.283 56.1739ZM183.829 51.0358V54.2181H157.818V51.0358H168.856V48.9695H161.055V41.1463H176.691V39.4115H161.011V36.3286H180.691V44.0192H165.022V45.9088H181.21V48.9695H172.801V51.0358H183.829ZM160.724 58.9695V55.8314H180.845V64.0966H176.823V58.9695H160.724ZM198.457 36.185C205.01 36.185 208.789 37.8977 208.8 41.0248C208.789 44.2071 205.01 45.9088 198.457 45.9088C191.894 45.9088 188.093 44.2071 188.104 41.0248C188.093 37.8977 191.894 36.185 198.457 36.185ZM185.507 50.417V47.2568H211.452V50.417H185.507ZM188.502 54.9806V52.0524H208.281V59.3121H192.435V61.0248H209.021V64.0303H188.524V56.5275H204.347V54.9806H188.502ZM192.281 41.0248C192.258 42.4281 194.292 42.9695 198.457 42.9806C202.678 42.9695 204.689 42.4281 204.689 41.0248C204.689 39.7762 202.678 39.0911 198.457 39.1021C194.292 39.0911 192.258 39.7762 192.281 41.0248ZM243.102 35.8093V41.8093H246.947V45.0579H243.102V51.8314H239.102V35.8093H243.102ZM221.676 50.3286V37.1463H225.676V47.0469C229.135 46.9806 232.837 46.6491 236.77 45.8867L237.234 49.1353C232.571 50.0634 228.141 50.3176 224.107 50.3286H221.676ZM224.472 63.8756V53.1353H243.102V63.8756H224.472ZM228.384 60.7485H239.19V56.2181H228.384V60.7485ZM262.747 38.7596C262.747 40.2513 262.648 41.6988 262.427 43.1021H268.184V35.7651H272.15V64.2292H268.184V54.0192H261.3V50.8148H268.184V46.2513H261.73C260.161 51.522 256.603 56.0192 249.951 59.301L247.885 56.1518C254.681 52.6822 258.029 48.1739 258.703 41.8867H249.244V38.7596H262.747ZM301.862 57.6767V60.9143H275.851V57.6767H286.823V52.406H278.602V37.5883H282.602V42.0192H295V37.5883H298.978V52.406H290.768V57.6767H301.862ZM282.602 49.2237H295V45.1795H282.602V49.2237ZM312.612 42.9364C312.612 47.5441 313.894 52.2955 317.794 54.7927L315.618 57.8646C313.165 56.3839 311.607 53.9419 310.7 51.0358C309.695 54.2513 307.982 56.9474 305.408 58.5165L302.977 55.5552C307.187 52.9474 308.745 47.9419 308.745 43.1242V38.2181H312.612V42.9364ZM314.789 48.627V45.3784H318.468V36.2071H322.203V62.9143H318.468V48.627H314.789ZM324.336 64.2292V35.7651H328.148V64.2292H324.336ZM357.174 57.6436V60.8922H331.163V57.6436H336.964V50.6601C334.766 49.3342 333.44 47.3121 333.451 44.8038C333.44 40.2071 337.948 37.1684 344.114 37.1684C350.279 37.1684 354.832 40.2071 354.832 44.8038C354.832 47.2789 353.539 49.2679 351.395 50.5938V57.6436H357.174ZM337.373 44.8038C337.373 47.5994 340.047 49.3121 344.114 49.3231C348.147 49.3121 350.887 47.5994 350.898 44.8038C350.887 41.9529 348.147 40.2955 344.114 40.3176C340.047 40.2955 337.373 41.9529 337.373 44.8038ZM340.909 57.6436H347.362V52.1076C346.346 52.2955 345.263 52.406 344.114 52.406C342.987 52.406 341.915 52.3065 340.909 52.1076V57.6436Z" fill="white"/>
<path fill-rule="evenodd" clip-rule="evenodd" d="M1277.04 90.1038C1275.65 88.7153 1275.65 86.464 1277.04 85.0755L1299.42 62.7008L1277.04 40.326C1275.65 38.9375 1275.65 36.6862 1277.04 35.2977C1278.43 33.9092 1280.68 33.9092 1282.07 35.2977L1306.96 60.1866C1307.63 60.8534 1308 61.7578 1308 62.7008C1308 63.6438 1307.63 64.5481 1306.96 65.2149L1282.07 90.1038C1280.68 91.4923 1278.43 91.4923 1277.04 90.1038Z" fill="white"/>
<path d="M50.704 88.3972V89.6012H45.776V93.5492H44.264V89.6012H39.392V88.3972H50.704ZM40.764 87.1092V81.7052H42.276V83.2172H47.792V81.7052H49.304V87.1092H40.764ZM42.276 85.8772H47.792V84.4212H42.276V85.8772ZM61.2636 81.2012V84.0572H62.9996V85.3172H61.2636V88.1732H59.7236V81.2012H61.2636ZM52.0236 87.6132V82.0132H57.5116V83.2172H53.5356V86.3812C55.8596 86.3812 57.1476 86.2832 58.6036 85.9892L58.7716 87.2212C57.1616 87.5572 55.7196 87.6132 53.0316 87.6132H52.0236ZM53.2836 93.4092V88.7332H61.2636V93.4092H53.2836ZM54.7676 92.2052H59.7516V89.9372H54.7676V92.2052ZM66.4192 88.4252V89.7692H68.0432V88.4252H69.4432V92.3592C70.8992 91.7572 71.5712 90.5112 71.5712 89.3212V88.3412H73.0832V89.3212C73.0832 90.6092 73.7412 91.8552 75.2672 92.3732L74.4832 93.5212C73.3912 93.1152 72.6912 92.3592 72.3132 91.4352C71.8932 92.3452 71.1932 93.1012 70.1712 93.5212L69.4432 92.4152V93.4092H64.9912V88.4252H66.4192ZM63.7872 84.5892C63.7732 82.8952 65.1452 81.7052 67.0352 81.7052C68.6452 81.7052 69.8912 82.6012 70.2132 83.9452H72.4392V81.2012H73.9512V87.7532H72.4392V85.2052H70.2132C69.9192 86.5772 68.6452 87.4872 67.0352 87.4732C65.1452 87.4872 63.7732 86.2972 63.7872 84.5892ZM65.2152 84.5892C65.2292 85.5832 65.9712 86.2272 67.0352 86.2412C68.0852 86.2272 68.8272 85.5832 68.8272 84.5892C68.8272 83.5952 68.0852 82.9652 67.0352 82.9652C65.9712 82.9652 65.2292 83.5952 65.2152 84.5892ZM66.4192 92.2332H68.0432V90.8892H66.4192V92.2332ZM85.7148 84.7012V85.9052H77.1468V81.6492H78.6588V84.7012H85.7148ZM75.6908 88.5372V87.3332H87.0028V88.5372H75.6908ZM77.0628 93.2692V89.6292H78.5748V92.0372H85.7988V93.2692H77.0628ZM94.2624 83.4412C94.2484 84.2252 94.4724 85.2752 95.2004 86.0172C95.8864 85.2892 96.1244 84.2672 96.1384 83.4412V83.0492H95.4104V81.8172H98.9104V83.0492H97.5664V83.4412C97.5664 84.5192 98.1124 85.7932 99.4704 86.4092L98.7424 87.5012C97.8044 87.0812 97.2164 86.3532 96.8804 85.5132C96.6004 86.3812 96.0824 87.1652 95.1864 87.6132C94.2904 87.1652 93.7864 86.3812 93.5064 85.5272C93.1564 86.3532 92.5684 87.0812 91.6584 87.5012L90.9304 86.4092C92.2744 85.7932 92.8344 84.4772 92.8344 83.4412V83.0492H91.4064V81.8172H94.9904V83.0492H94.2624V83.4412ZM92.4704 89.4612V88.3412H96.4184V91.3652H93.9544V92.3172C95.0744 92.3172 95.7884 92.2892 96.6704 92.1212L96.7824 93.2412C95.6764 93.4372 94.8084 93.4512 93.1704 93.4652H92.4984V90.3012H94.9624V89.4612H92.4704ZM97.1184 93.4652V88.2292H98.5184V89.6292H99.8624V88.2292H101.206V93.4652H97.1184ZM98.5184 92.2892H99.8624V90.7492H98.5184V92.2892ZM99.6944 87.6412V81.2012H101.206V83.6652H102.606V84.9532H101.206V87.6412H99.6944ZM114.51 87.5852V88.7892H103.254V87.5852H114.51ZM104.402 84.1132C104.416 82.5452 106.166 81.5932 108.882 81.5932C111.556 81.5932 113.306 82.5452 113.306 84.1132C113.306 85.6672 111.556 86.6332 108.882 86.6332C106.166 86.6332 104.416 85.6672 104.402 84.1132ZM104.626 93.3252V89.7132H106.166V92.0932H113.222V93.3252H104.626ZM105.998 84.1132C105.984 84.9392 107.062 85.3872 108.882 85.4012C110.66 85.3872 111.752 84.9392 111.738 84.1132C111.752 83.2872 110.66 82.8112 108.882 82.7972C107.062 82.8112 105.984 83.2872 105.998 84.1132ZM128.434 81.2292V85.0932H130.17V86.3532H128.434V90.4412H126.894V81.2292H128.434ZM118.69 83.8052V82.5732H121.602V81.2012H123.114V82.5732H126.026V83.8052H118.69ZM119.334 86.6892C119.32 85.2472 120.566 84.3092 122.358 84.3092C124.136 84.3092 125.368 85.2472 125.382 86.6892C125.368 88.0892 124.136 89.0132 122.358 89.0132C120.566 89.0132 119.32 88.0892 119.334 86.6892ZM120.51 93.3252V89.7132H122.022V92.0932H128.91V93.3252H120.51ZM120.79 86.6892C120.79 87.4172 121.42 87.8372 122.358 87.8372C123.296 87.8372 123.926 87.4172 123.926 86.6892C123.926 85.9192 123.296 85.4852 122.358 85.4852C121.42 85.4852 120.79 85.9192 120.79 86.6892ZM145.381 86.2132V87.4172H140.481V88.3692H143.981V91.3932H136.953V92.2892H144.317V93.4652H135.441V90.3292H142.469V89.4892H135.441V88.3692H138.997V87.4172H134.125V86.2132H145.381ZM134.657 84.6172C136.939 84.4632 138.437 83.6792 138.787 82.7692H135.133V81.5932H144.373V82.7692H140.691C141.041 83.6652 142.553 84.4632 144.849 84.6172L144.373 85.7652C142.147 85.5972 140.481 84.8552 139.739 83.7492C138.983 84.8412 137.331 85.5972 135.133 85.7652L134.657 84.6172ZM159.473 81.7332V82.5452C159.473 83.3572 159.473 84.3652 159.221 85.6532H160.845V86.8572H149.561V85.6532H157.667C157.905 84.5332 157.947 83.6652 157.961 82.9372H150.961V81.7332H159.473ZM150.849 89.0412V87.8372H159.445V91.1972H152.389V92.2612H159.781V93.4372H150.877V90.0492H157.933V89.0412H150.849ZM165.58 83.6092C165.58 84.7852 166.07 86.1712 167.288 87.0112C168.478 86.1852 168.982 84.7992 168.996 83.6092V82.1252H170.508V83.6092C170.508 85.1072 171.236 86.6332 172.916 87.3332L172.104 88.4532C170.928 87.9632 170.158 87.0392 169.738 85.9332C169.318 87.0952 168.534 88.0892 167.288 88.6212C166.014 88.0892 165.216 87.0672 164.796 85.9052C164.362 86.9972 163.592 87.9492 162.444 88.4532L161.66 87.3332C163.284 86.6052 164.054 85.0232 164.068 83.6092V82.1252H165.58V83.6092ZM161.66 91.9812V90.7492H172.916V91.9812H161.66ZM184.064 81.2012V93.5492H182.524V81.2012H184.064ZM173.844 90.1612C177.064 88.6212 178.562 86.5352 178.842 83.7212H174.46V82.5172H180.396C180.382 86.1992 178.954 89.3212 174.628 91.3652L173.844 90.1612ZM196.499 81.2012V93.5492H195.043V81.2012H196.499ZM185.971 86.5492C185.971 83.8332 187.021 82.1392 188.631 82.1532C190.143 82.1392 191.151 83.5392 191.319 85.8492H192.523V81.4252H193.979V92.9612H192.523V87.0812H191.333C191.207 89.5032 190.171 90.9732 188.631 90.9732C187.021 90.9732 185.971 89.2792 185.971 86.5492ZM187.371 86.5492C187.371 88.4812 187.847 89.5172 188.631 89.5172C189.457 89.5172 189.947 88.4812 189.947 86.5492C189.947 84.6172 189.457 83.5672 188.631 83.5812C187.847 83.5672 187.371 84.6172 187.371 86.5492ZM202.523 84.1692C202.509 86.4652 203.615 88.7192 205.575 89.6012L204.651 90.8052C203.265 90.1192 202.285 88.8172 201.753 87.2072C201.221 88.9012 200.213 90.3152 198.799 91.0292L197.819 89.7972C199.835 88.8592 200.955 86.4792 200.983 84.1692V82.2092H202.523V84.1692ZM204.203 86.4372V85.2052H206.807V81.2012H208.319V93.5772H206.807V86.4372H204.203ZM217.819 84.7012C217.805 86.6192 218.953 88.8032 220.899 89.7132L220.059 90.9172C218.659 90.2592 217.637 88.9292 217.077 87.3752C216.517 89.0832 215.439 90.5392 214.011 91.2252L213.115 90.0212C215.089 89.0832 216.293 86.7732 216.307 84.7012V83.6652H213.591V82.4332H220.395V83.6652H217.819V84.7012ZM221.543 93.5492V81.2012H223.055V86.0172H224.959V87.2772H223.055V93.5492H221.543ZM236.778 88.1452V89.3772H234.006V93.5492H232.466V89.3772H229.722V93.5492H228.182V89.3772H225.466V88.1452H236.778ZM226.642 84.3932C226.656 82.7272 228.462 81.6492 231.094 81.6492C233.726 81.6492 235.546 82.7272 235.546 84.3932C235.546 86.0592 233.726 87.1092 231.094 87.1092C228.462 87.1092 226.656 86.0592 226.642 84.3932ZM228.21 84.3932C228.21 85.3452 229.344 85.9052 231.094 85.9052C232.844 85.9052 233.978 85.3452 233.978 84.3932C233.978 83.4412 232.844 82.8672 231.094 82.8812C229.344 82.8672 228.21 83.4412 228.21 84.3932ZM248.878 90.8612V92.1212H237.594V90.8612H242.466V88.8452H238.938V84.8132H246.05V83.2732H238.91V82.0412H247.534V86.0172H240.45V87.6132H247.814V88.8452H243.95V90.8612H248.878ZM260.977 87.3052V88.5372H256.189V90.8052H254.649V88.5372H249.665V87.3052H260.977ZM250.869 84.0012C250.869 82.4472 252.647 81.4812 255.321 81.4812C257.967 81.4812 259.731 82.4472 259.745 84.0012C259.731 85.5552 257.967 86.5212 255.321 86.5212C252.647 86.5212 250.869 85.5552 250.869 84.0012ZM251.065 93.3252V89.6572H252.577V92.0652H259.717V93.3252H251.065ZM252.521 84.0012C252.507 84.8272 253.613 85.3032 255.321 85.3172C257.015 85.3032 258.107 84.8272 258.121 84.0012C258.107 83.1612 257.015 82.6852 255.321 82.6852C253.613 82.6852 252.507 83.1612 252.521 84.0012ZM275.405 81.2012V87.4452H273.893V81.2012H275.405ZM265.297 86.4652C268.377 85.8772 269.819 84.5892 270.001 82.9372H265.969V81.7052H271.681C271.667 85.0232 269.665 86.8992 265.857 87.6972L265.297 86.4652ZM267.201 89.1532V87.9772H275.405V91.1972H268.769V92.2332H275.769V93.4372H267.229V90.0772H273.865V89.1532H267.201ZM287.505 81.2012V93.5772H285.965V81.2012H287.505ZM277.621 86.4652C277.607 83.8052 278.965 82.1112 280.841 82.0972C282.703 82.1112 284.061 83.8052 284.061 86.4652C284.061 89.1532 282.703 90.8472 280.841 90.8332C278.965 90.8472 277.607 89.1532 277.621 86.4652ZM279.077 86.4652C279.077 88.3692 279.791 89.4752 280.841 89.4612C281.877 89.4752 282.591 88.3692 282.605 86.4652C282.591 84.5892 281.877 83.4692 280.841 83.4692C279.791 83.4692 279.077 84.5892 279.077 86.4652ZM293.332 82.0692C295.292 82.0552 296.72 83.2872 296.72 85.0372C296.72 86.8012 295.292 88.0332 293.332 88.0332C291.386 88.0332 289.93 86.8012 289.944 85.0372C289.93 83.2872 291.386 82.0552 293.332 82.0692ZM289.384 89.7412C291.61 89.7412 294.69 89.7132 297.364 89.3492L297.476 90.4412C294.704 90.9732 291.75 90.9872 289.552 91.0012L289.384 89.7412ZM291.428 85.0372C291.428 86.0732 292.24 86.7172 293.332 86.7172C294.424 86.7172 295.236 86.0732 295.236 85.0372C295.236 84.0152 294.424 83.3712 293.332 83.3852C292.24 83.3712 291.428 84.0152 291.428 85.0372ZM298.092 93.5772V81.2012H299.604V93.5772H298.092ZM316.048 90.8612V92.1212H304.764V90.8612H309.608V88.4252H305.716V87.2212H307.48V83.5252H305.688V82.2932H315.068V83.5252H313.248V87.2212H315.012V88.4252H311.12V90.8612H316.048ZM308.992 87.2212H311.764V83.5252H308.992V87.2212ZM323.247 82.9092C323.233 84.8132 325.109 86.7312 327.699 87.1652L326.999 88.4532C324.927 88.0192 323.247 86.7592 322.449 85.1072C321.623 86.7452 319.929 88.0052 317.871 88.4532L317.199 87.1652C319.747 86.7172 321.609 84.7992 321.623 82.9092V81.9852H323.247V82.9092ZM316.863 91.9812V90.7212H328.147V91.9812H316.863ZM338.987 87.6692V88.9012H330.335V82.1812H338.903V83.4132H331.875V84.8972H338.595V86.1012H331.875V87.6692H338.987ZM328.963 92.0652V90.8052H340.247V92.0652H328.963ZM350.919 81.2012V86.1292H352.627V87.3892H350.919V93.5492H349.379V81.2012H350.919ZM340.867 90.0212C342.617 88.1732 343.177 86.2132 343.303 83.7492H341.371V82.4892H344.759C344.745 85.7372 344.297 88.4672 342.071 90.8892L340.867 90.0212ZM344.395 90.8332C346.131 88.7332 346.635 86.4232 346.733 83.7492H345.179V82.4892H348.175C348.161 85.8212 347.825 88.9992 345.599 91.6732L344.395 90.8332ZM357.81 84.7012C357.81 86.7452 359 88.8732 361.002 89.7132L360.162 90.9172C358.706 90.2732 357.628 88.9712 357.068 87.4032C356.508 89.0972 355.416 90.5392 353.974 91.2252L353.106 90.0212C355.052 89.1252 356.27 86.8152 356.27 84.7012V83.6652H353.554V82.4332H360.526V83.6652H357.81V84.7012ZM361.898 93.5492V81.2012H363.438V93.5492H361.898Z" fill="white"/>
<defs>
<filter id="filter0_f_308_2880" x="-58" y="-1005.65" width="1664" height="1556" filterUnits="userSpaceOnUse" color-interpolation-filters="sRGB">
<feFlood flood-opacity="0" result="BackgroundImageFix"/>
<feBlend mode="normal" in="SourceGraphic" in2="BackgroundImageFix" result="shape"/>
<feGaussianBlur stdDeviation="100" result="effect1_foregroundBlur_308_2880"/>
</filter>
<filter id="filter1_f_308_2880" x="-625" y="-1001.65" width="1392" height="1392" filterUnits="userSpaceOnUse" color-interpolation-filters="sRGB">
<feFlood flood-opacity="0" result="BackgroundImageFix"/>
<feBlend mode="normal" in="SourceGraphic" in2="BackgroundImageFix" result="shape"/>
<feGaussianBlur stdDeviation="100" result="effect1_foregroundBlur_308_2880"/>
</filter>
<filter id="filter2_f_308_2880" x="863" y="-989.655" width="1392" height="1392" filterUnits="userSpaceOnUse" color-interpolation-filters="sRGB">
<feFlood flood-opacity="0" result="BackgroundImageFix"/>
<feBlend mode="normal" in="SourceGraphic" in2="BackgroundImageFix" result="shape"/>
<feGaussianBlur stdDeviation="100" result="effect1_foregroundBlur_308_2880"/>
</filter>
<filter id="filter3_f_308_2880" x="-201" y="-349.655" width="1392" height="1392" filterUnits="userSpaceOnUse" color-interpolation-filters="sRGB">
<feFlood flood-opacity="0" result="BackgroundImageFix"/>
<feBlend mode="normal" in="SourceGraphic" in2="BackgroundImageFix" result="shape"/>
<feGaussianBlur stdDeviation="100" result="effect1_foregroundBlur_308_2880"/>
</filter>
</defs>
</svg>
