<svg width="17" height="14" viewBox="0 0 17 14" fill="none" xmlns="http://www.w3.org/2000/svg">
<path d="M1.872 13.488L0.624 11.024C2.896 9.936 4.016 8.528 4.016 6.384C3.888 6.416 3.792 6.416 3.664 6.416C2.032 6.416 0.72 5.328 0.72 3.6C0.72 1.712 1.968 0.527998 3.664 0.527998C6.032 0.527998 7.248 2.352 7.248 5.456C7.248 8.976 5.488 11.728 1.872 13.488ZM10.832 13.488L9.584 11.024C11.856 9.936 12.976 8.528 12.976 6.384C12.848 6.416 12.752 6.416 12.624 6.416C10.992 6.416 9.68 5.328 9.68 3.6C9.68 1.712 10.928 0.527998 12.624 0.527998C14.992 0.527998 16.208 2.352 16.208 5.456C16.208 8.976 14.448 11.728 10.832 13.488Z" fill="#333333"/>
</svg>
